<?xml version="1.0" encoding="UTF-8" standalone="no"?>
<!-- Created with Inkscape (http://www.inkscape.org/) -->

<svg
   xmlns:dc="http://purl.org/dc/elements/1.1/"
   xmlns:cc="http://creativecommons.org/ns#"
   xmlns:rdf="http://www.w3.org/1999/02/22-rdf-syntax-ns#"
   xmlns:svg="http://www.w3.org/2000/svg"
   xmlns="http://www.w3.org/2000/svg"
   xmlns:sodipodi="http://sodipodi.sourceforge.net/DTD/sodipodi-0.dtd"
   xmlns:inkscape="http://www.inkscape.org/namespaces/inkscape"
   width="359.99997"
   height="136.864"
   id="svg2"
   version="1.1"
   inkscape:version="0.48.5 r10040"
   sodipodi:docname="cartoon.svg">
  <defs
     id="defs4">
    <clipPath
       id="clipPath5644"
       clipPathUnits="userSpaceOnUse">
      <path
         id="path5646"
         d="m 0,0 278.25,0 0,384 L 0,384 0,0 z"
         inkscape:connector-curvature="0" />
    </clipPath>
  </defs>
  <sodipodi:namedview
     id="base"
     pagecolor="#ffffff"
     bordercolor="#666666"
     borderopacity="1.0"
     inkscape:pageopacity="0.0"
     inkscape:pageshadow="2"
     inkscape:zoom="1"
     inkscape:cx="180"
     inkscape:cy="-0.13598182"
     inkscape:document-units="px"
     inkscape:current-layer="g6629"
     showgrid="false"
     fit-margin-top="0"
     fit-margin-left="0"
     fit-margin-right="0"
     fit-margin-bottom="0"
     inkscape:window-width="1280"
     inkscape:window-height="751"
     inkscape:window-x="0"
     inkscape:window-y="0"
     inkscape:window-maximized="1" />
  <metadata
     id="metadata7">
    <rdf:RDF>
      <cc:Work
         rdf:about="">
        <dc:format>image/svg+xml</dc:format>
        <dc:type
           rdf:resource="http://purl.org/dc/dcmitype/StillImage" />
        <dc:title />
      </cc:Work>
    </rdf:RDF>
  </metadata>
  <g
     inkscape:label="Layer 1"
     inkscape:groupmode="layer"
     id="layer1"
     transform="translate(-351.78125,-192.26843)">
    <g
       transform="translate(-196.6789,96.348621)"
       id="g4839">
      <g
         transform="translate(1.528789,0)"
         id="g4841">
        <rect
           style="fill:#d579bc;fill-opacity:1;stroke:none"
           id="rect4843"
           width="9.9900293"
           height="29.999847"
           x="428.25745"
           y="223.54124" />
        <rect
           y="223.54124"
           x="445.75745"
           height="30"
           width="9.9900293"
           id="rect4845"
           style="fill:#008f63;fill-opacity:1;stroke:none" />
        <rect
           style="fill:#f79935;fill-opacity:1;stroke:none"
           id="rect4847"
           width="9.9900293"
           height="29.999847"
           x="480.75745"
           y="223.5414" />
        <rect
           y="223.57115"
           x="498.25745"
           height="29.970089"
           width="9.9900293"
           id="rect4849"
           style="fill:#0090b0;fill-opacity:1;stroke:none" />
        <rect
           style="fill:#e60064;fill-opacity:1;stroke:none"
           id="rect4851"
           width="9.9900293"
           height="29.999847"
           x="463.25745"
           y="223.54124" />
      </g>
      <rect
         y="251.96281"
         x="419.78125"
         height="3"
         width="100"
         id="rect4853"
         style="fill:#000000;fill-opacity:1;fill-rule:evenodd;stroke:none" />
    </g>
    <g
       transform="matrix(0.47737908,0,0,0.47737908,448.89105,273.90946)"
       id="g5111">
      <g
         transform="translate(1.528789,0)"
         id="g5113">
        <rect
           y="252.7114"
           x="1305.9667"
           height="5.0192413"
           width="9.9900293"
           id="rect5497"
           style="fill:#d579bc;fill-opacity:1;stroke:none" />
        <rect
           style="fill:#008f63;fill-opacity:1;stroke:none"
           id="rect5499"
           width="9.9900293"
           height="18.801798"
           x="1323.4667"
           y="238.92899" />
        <rect
           y="252.71155"
           x="1358.4667"
           height="5.0192413"
           width="9.9900293"
           id="rect5501"
           style="fill:#f79935;fill-opacity:1;stroke:none" />
        <rect
           style="fill:#0090b0;fill-opacity:1;stroke:none"
           id="rect5503"
           width="9.9900293"
           height="11.880685"
           x="1375.9667"
           y="245.8501" />
        <rect
           y="231.17639"
           x="1340.9667"
           height="26.554245"
           width="9.9900293"
           id="rect5505"
           style="fill:#e60064;fill-opacity:1;stroke:none" />
      </g>
      <rect
         style="fill:#000000;fill-opacity:1;fill-rule:evenodd;stroke:none"
         id="rect5507"
         width="100"
         height="3"
         x="1297.4905"
         y="256.15234" />
    </g>
    <g
       id="g5193"
       transform="translate(491.99083,191.48624)">
      <g
         id="g5195"
         transform="translate(1.528789,0)">
        <rect
           y="250.54123"
           x="428.25745"
           height="3"
           width="9.9900293"
           id="rect5197"
           style="fill:#d579bc;fill-opacity:1;stroke:none" />
        <rect
           style="fill:#008f63;fill-opacity:1;stroke:none"
           id="rect5199"
           width="9.9900293"
           height="10.517076"
           x="445.75745"
           y="243.02417" />
        <rect
           y="250.54124"
           x="480.75745"
           height="3"
           width="9.9900293"
           id="rect5201"
           style="fill:#f79935;fill-opacity:1;stroke:none" />
        <rect
           style="fill:#0090b0;fill-opacity:1;stroke:none"
           id="rect5203"
           width="9.9900293"
           height="30"
           x="498.25745"
           y="223.54124" />
        <rect
           y="250.54123"
           x="463.25745"
           height="3"
           width="9.9900293"
           id="rect5205"
           style="fill:#e60064;fill-opacity:1;stroke:none" />
      </g>
      <rect
         style="fill:#000000;fill-opacity:1;fill-rule:evenodd;stroke:none"
         id="rect5207"
         width="100"
         height="3"
         x="419.78125"
         y="251.96281" />
    </g>
    <g
       transform="translate(423.18934,121.87836)"
       id="g5209">
      <g
         id="g5211"
         transform="translate(-6.412349,-120.99811)">
        <g
           transform="translate(1.528789,0)"
           id="g5213">
          <rect
             style="fill:#d579bc;fill-opacity:1;stroke:none"
             id="rect5215"
             width="9.9900293"
             height="10.016726"
             x="428.25745"
             y="243.52452" />
          <rect
             y="223.54124"
             x="445.75745"
             height="30"
             width="9.9900293"
             id="rect5217"
             style="fill:#008f63;fill-opacity:1;stroke:none" />
          <rect
             style="fill:#f79935;fill-opacity:1;stroke:none"
             id="rect5219"
             width="9.9900293"
             height="14.960922"
             x="480.75745"
             y="238.58032" />
          <rect
             y="247.05609"
             x="498.25745"
             height="6.4851575"
             width="9.9900293"
             id="rect5221"
             style="fill:#0090b0;fill-opacity:1;stroke:none" />
          <rect
             style="fill:#e60064;fill-opacity:1;stroke:none"
             id="rect5223"
             width="9.9900293"
             height="4.3662167"
             x="463.25745"
             y="249.17502" />
        </g>
        <rect
           y="251.96281"
           x="419.78125"
           height="3"
           width="100"
           id="rect5225"
           style="fill:#000000;fill-opacity:1;fill-rule:evenodd;stroke:none" />
      </g>
      <text
         xml:space="preserve"
         style="font-size:18.46687508px;font-style:normal;font-weight:normal;line-height:125%;letter-spacing:0px;word-spacing:0px;fill:#000000;fill-opacity:1;stroke:none;font-family:Sans"
         x="397.30768"
         y="147.2767"
         id="text5227"
         sodipodi:linespacing="125%"><tspan
           sodipodi:role="line"
           id="tspan5229"
           x="397.30768"
           y="147.2767"
           style="font-size:12px;font-style:normal;font-variant:normal;font-weight:normal;font-stretch:normal;font-family:Source Sans Pro;-inkscape-font-specification:Source Sans Pro">Bangkok Typical Concerns</tspan></text>
    </g>
    <g
       transform="translate(570.39688,81.878362)"
       id="g5231">
      <g
         id="g5233"
         transform="translate(-0.728759,-80.998111)">
        <g
           id="g5235"
           transform="translate(1.528789,0)">
          <rect
             y="249.88133"
             x="428.25745"
             height="3.6599028"
             width="9.9900293"
             id="rect5237"
             style="fill:#d579bc;fill-opacity:1;stroke:none" />
          <rect
             style="fill:#008f63;fill-opacity:1;stroke:none"
             id="rect5239"
             width="9.9900293"
             height="24.849316"
             x="445.75745"
             y="228.69193" />
          <rect
             y="243.90955"
             x="480.75745"
             height="9.631691"
             width="9.9900293"
             id="rect5241"
             style="fill:#f79935;fill-opacity:1;stroke:none" />
          <rect
             style="fill:#0090b0;fill-opacity:1;stroke:none"
             id="rect5243"
             width="9.9900293"
             height="4.5427952"
             x="498.25745"
             y="248.99844" />
          <rect
             y="223.54124"
             x="463.25745"
             height="30"
             width="9.9900293"
             id="rect5245"
             style="fill:#e60064;fill-opacity:1;stroke:none" />
        </g>
        <rect
           style="fill:#000000;fill-opacity:1;fill-rule:evenodd;stroke:none"
           id="rect5247"
           width="100"
           height="3"
           x="419.78125"
           y="251.96281" />
      </g>
      <text
         sodipodi:linespacing="125%"
         id="text5249"
         y="187.2767"
         x="397.30768"
         style="font-size:18.46687508px;font-style:normal;font-weight:normal;line-height:125%;letter-spacing:0px;word-spacing:0px;fill:#000000;fill-opacity:1;stroke:none;font-family:Sans"
         xml:space="preserve"><tspan
           style="font-size:12px;font-style:normal;font-variant:normal;font-weight:normal;font-stretch:normal;font-family:Source Sans Pro;-inkscape-font-specification:Source Sans Pro"
           y="187.2767"
           x="397.30768"
           id="tspan5251"
           sodipodi:role="line">Hong Kong Typical Concerns</tspan></text>
    </g>
    <g
       transform="matrix(0.47737908,0,0,0.47737908,587.89105,219.90946)"
       id="g5253">
      <g
         transform="translate(1.528789,0)"
         id="g5255">
        <rect
           style="fill:#d579bc;fill-opacity:1;stroke:none"
           id="rect5257"
           width="9.9900293"
           height="20.524445"
           x="428.25745"
           y="233.01665" />
        <rect
           y="239.04645"
           x="445.75745"
           height="14.494796"
           width="9.9900293"
           id="rect5259"
           style="fill:#008f63;fill-opacity:1;stroke:none" />
        <rect
           style="fill:#f79935;fill-opacity:1;stroke:none"
           id="rect5261"
           width="9.9900293"
           height="29.999847"
           x="480.75745"
           y="223.5414" />
        <rect
           y="249.41316"
           x="498.25745"
           height="4.1280828"
           width="9.9900293"
           id="rect5263"
           style="fill:#0090b0;fill-opacity:1;stroke:none" />
        <rect
           style="fill:#e60064;fill-opacity:1;stroke:none"
           id="rect5265"
           width="9.9900293"
           height="4.1578412"
           x="463.25745"
           y="249.38326" />
      </g>
      <rect
         y="251.96281"
         x="419.78125"
         height="3"
         width="100"
         id="rect5267"
         style="fill:#000000;fill-opacity:1;fill-rule:evenodd;stroke:none" />
    </g>
    <g
       transform="translate(459.62385,98.66055)"
       id="g5269">
      <rect
         y="251.96281"
         x="314.75372"
         height="3"
         width="348.20184"
         id="rect5271"
         style="fill:#000000;fill-opacity:1;fill-rule:evenodd;stroke:none" />
    </g>
    <g
       id="g5273"
       transform="matrix(0.47737908,0,0,0.47737908,607.89105,199.90946)">
      <g
         id="g5275"
         transform="translate(1.528789,0)">
        <rect
           y="250.24464"
           x="428.25745"
           height="3.2964408"
           width="9.9900293"
           id="rect5277"
           style="fill:#d579bc;fill-opacity:1;stroke:none" />
        <rect
           style="fill:#008f63;fill-opacity:1;stroke:none"
           id="rect5279"
           width="9.9900293"
           height="30"
           x="445.75745"
           y="223.54124" />
        <rect
           y="246.79921"
           x="480.75745"
           height="6.7420416"
           width="9.9900293"
           id="rect5281"
           style="fill:#f79935;fill-opacity:1;stroke:none" />
        <rect
           style="fill:#0090b0;fill-opacity:1;stroke:none"
           id="rect5283"
           width="9.9900293"
           height="11.880684"
           x="498.25745"
           y="241.66055" />
        <rect
           y="240.76924"
           x="463.25745"
           height="12.771843"
           width="9.9900293"
           id="rect5285"
           style="fill:#e60064;fill-opacity:1;stroke:none" />
      </g>
      <rect
         style="fill:#000000;fill-opacity:1;fill-rule:evenodd;stroke:none"
         id="rect5287"
         width="100"
         height="3"
         x="419.78125"
         y="251.96281" />
    </g>
    <g
       transform="matrix(0.47737908,0,0,0.47737908,647.89105,219.90946)"
       id="g5289">
      <g
         transform="translate(1.528789,0)"
         id="g5291">
        <rect
           style="fill:#d579bc;fill-opacity:1;stroke:none"
           id="rect5293"
           width="9.9900293"
           height="7.6034422"
           x="428.25745"
           y="245.93765" />
        <rect
           y="230.43245"
           x="445.75745"
           height="23.108799"
           width="9.9900293"
           id="rect5295"
           style="fill:#008f63;fill-opacity:1;stroke:none" />
        <rect
           style="fill:#f79935;fill-opacity:1;stroke:none"
           id="rect5297"
           width="9.9900293"
           height="17.940245"
           x="480.75745"
           y="235.601" />
        <rect
           y="248.55176"
           x="498.25745"
           height="4.9894829"
           width="9.9900293"
           id="rect5299"
           style="fill:#0090b0;fill-opacity:1;stroke:none" />
        <rect
           style="fill:#e60064;fill-opacity:1;stroke:none"
           id="rect5301"
           width="9.9900293"
           height="5.0192413"
           x="463.25745"
           y="248.52185" />
      </g>
      <rect
         y="251.96281"
         x="419.78125"
         height="3"
         width="100"
         id="rect5303"
         style="fill:#000000;fill-opacity:1;fill-rule:evenodd;stroke:none" />
    </g>
    <g
       id="g5305"
       transform="matrix(0.47737908,0,0,0.47737908,707.89105,219.90946)">
      <g
         id="g5307"
         transform="translate(1.528789,0)">
        <rect
           y="245.07625"
           x="428.25745"
           height="8.4648418"
           width="9.9900293"
           id="rect5309"
           style="fill:#d579bc;fill-opacity:1;stroke:none" />
        <rect
           style="fill:#008f63;fill-opacity:1;stroke:none"
           id="rect5311"
           width="9.9900293"
           height="30"
           x="445.75745"
           y="223.54124" />
        <rect
           y="245.93781"
           x="480.75745"
           height="7.6034422"
           width="9.9900293"
           id="rect5313"
           style="fill:#f79935;fill-opacity:1;stroke:none" />
        <rect
           style="fill:#0090b0;fill-opacity:1;stroke:none"
           id="rect5315"
           width="9.9900293"
           height="6.7122831"
           x="498.25745"
           y="246.82896" />
        <rect
           y="250.24464"
           x="463.25745"
           height="3.2964408"
           width="9.9900293"
           id="rect5317"
           style="fill:#e60064;fill-opacity:1;stroke:none" />
      </g>
      <rect
         style="fill:#000000;fill-opacity:1;fill-rule:evenodd;stroke:none"
         id="rect5319"
         width="100"
         height="3"
         x="419.78125"
         y="251.96281" />
    </g>
    <g
       transform="matrix(0.47737908,0,0,0.47737908,787.89105,219.90946)"
       id="g5321">
      <g
         transform="translate(1.528789,0)"
         id="g5323">
        <rect
           style="fill:#d579bc;fill-opacity:1;stroke:none"
           id="rect5325"
           width="9.9900293"
           height="11.049043"
           x="428.25745"
           y="242.49205" />
        <rect
           y="232.15524"
           x="445.75745"
           height="21.385998"
           width="9.9900293"
           id="rect5327"
           style="fill:#008f63;fill-opacity:1;stroke:none" />
        <rect
           style="fill:#f79935;fill-opacity:1;stroke:none"
           id="rect5329"
           width="9.9900293"
           height="23.970045"
           x="480.75745"
           y="229.5712" />
        <rect
           y="233.90796"
           x="498.25745"
           height="19.633286"
           width="9.9900293"
           id="rect5331"
           style="fill:#0090b0;fill-opacity:1;stroke:none" />
        <rect
           style="fill:#e60064;fill-opacity:1;stroke:none"
           id="rect5333"
           width="9.9900293"
           height="3.2964408"
           x="463.25745"
           y="250.24464" />
      </g>
      <rect
         y="251.96281"
         x="419.78125"
         height="3"
         width="100"
         id="rect5335"
         style="fill:#000000;fill-opacity:1;fill-rule:evenodd;stroke:none" />
    </g>
    <g
       id="g5337"
       transform="matrix(0.47737908,0,0,0.47737908,847.89105,219.90946)">
      <g
         id="g5339"
         transform="translate(1.528789,0)">
        <rect
           y="248.52185"
           x="428.25745"
           height="5.0192413"
           width="9.9900293"
           id="rect5341"
           style="fill:#d579bc;fill-opacity:1;stroke:none" />
        <rect
           style="fill:#008f63;fill-opacity:1;stroke:none"
           id="rect5343"
           width="9.9900293"
           height="22.247398"
           x="445.75745"
           y="231.29385" />
        <rect
           y="248.522"
           x="480.75745"
           height="5.0192413"
           width="9.9900293"
           id="rect5345"
           style="fill:#f79935;fill-opacity:1;stroke:none" />
        <rect
           style="fill:#0090b0;fill-opacity:1;stroke:none"
           id="rect5347"
           width="9.9900293"
           height="29.970089"
           x="498.25745"
           y="223.57115" />
        <rect
           y="247.66045"
           x="463.25745"
           height="5.8806415"
           width="9.9900293"
           id="rect5349"
           style="fill:#e60064;fill-opacity:1;stroke:none" />
      </g>
      <rect
         style="fill:#000000;fill-opacity:1;fill-rule:evenodd;stroke:none"
         id="rect5351"
         width="100"
         height="3"
         x="419.78125"
         y="251.96281" />
    </g>
    <g
       transform="matrix(0.47737908,0,0,0.47737908,867.89105,199.90946)"
       id="g5353">
      <g
         transform="translate(1.528789,0)"
         id="g5355">
        <rect
           style="fill:#d579bc;fill-opacity:1;stroke:none"
           id="rect5357"
           width="9.9900293"
           height="15.356044"
           x="428.25745"
           y="238.18504" />
        <rect
           y="228.70964"
           x="445.75745"
           height="24.831598"
           width="9.9900293"
           id="rect5359"
           style="fill:#008f63;fill-opacity:1;stroke:none" />
        <rect
           style="fill:#f79935;fill-opacity:1;stroke:none"
           id="rect5361"
           width="9.9900293"
           height="17.078844"
           x="480.75745"
           y="236.4624" />
        <rect
           y="240.79916"
           x="498.25745"
           height="12.742085"
           width="9.9900293"
           id="rect5363"
           style="fill:#0090b0;fill-opacity:1;stroke:none" />
        <rect
           style="fill:#e60064;fill-opacity:1;stroke:none"
           id="rect5365"
           width="9.9900293"
           height="4.1578412"
           x="463.25745"
           y="249.38326" />
      </g>
      <rect
         y="251.96281"
         x="419.78125"
         height="3"
         width="100"
         id="rect5367"
         style="fill:#000000;fill-opacity:1;fill-rule:evenodd;stroke:none" />
    </g>
    <g
       id="g5369"
       transform="matrix(0.47737908,0,0,0.47737908,807.89105,199.90946)">
      <g
         id="g5371"
         transform="translate(1.528789,0)">
        <rect
           y="248.52185"
           x="428.25745"
           height="5.0192413"
           width="9.9900293"
           id="rect5373"
           style="fill:#d579bc;fill-opacity:1;stroke:none" />
        <rect
           style="fill:#008f63;fill-opacity:1;stroke:none"
           id="rect5375"
           width="9.9900293"
           height="30"
           x="445.75745"
           y="223.54124" />
        <rect
           y="246.79921"
           x="480.75745"
           height="6.7420416"
           width="9.9900293"
           id="rect5377"
           style="fill:#f79935;fill-opacity:1;stroke:none" />
        <rect
           style="fill:#0090b0;fill-opacity:1;stroke:none"
           id="rect5379"
           width="9.9900293"
           height="24.801687"
           x="498.25745"
           y="228.73955" />
        <rect
           y="251.10605"
           x="463.25745"
           height="2.4350407"
           width="9.9900293"
           id="rect5381"
           style="fill:#e60064;fill-opacity:1;stroke:none" />
      </g>
      <rect
         style="fill:#000000;fill-opacity:1;fill-rule:evenodd;stroke:none"
         id="rect5383"
         width="100"
         height="3"
         x="419.78125"
         y="251.96281" />
    </g>
    <g
       transform="matrix(0.47737908,0,0,0.47737908,747.89105,199.90946)"
       id="g5385">
      <g
         transform="translate(1.528789,0)"
         id="g5387">
        <rect
           style="fill:#d579bc;fill-opacity:1;stroke:none"
           id="rect5389"
           width="9.9900293"
           height="7.6034422"
           x="428.25745"
           y="245.93765" />
        <rect
           y="240.76924"
           x="445.75745"
           height="12.771996"
           width="9.9900293"
           id="rect5391"
           style="fill:#008f63;fill-opacity:1;stroke:none" />
        <rect
           style="fill:#f79935;fill-opacity:1;stroke:none"
           id="rect5393"
           width="9.9900293"
           height="4.1578412"
           x="480.75745"
           y="249.38341" />
        <rect
           y="223.57115"
           x="498.25745"
           height="29.970089"
           width="9.9900293"
           id="rect5395"
           style="fill:#0090b0;fill-opacity:1;stroke:none" />
        <rect
           style="fill:#e60064;fill-opacity:1;stroke:none"
           id="rect5397"
           width="9.9900293"
           height="3.2964408"
           x="463.25745"
           y="250.24464" />
      </g>
      <rect
         y="251.96281"
         x="419.78125"
         height="3"
         width="100"
         id="rect5399"
         style="fill:#000000;fill-opacity:1;fill-rule:evenodd;stroke:none" />
    </g>
    <g
       id="g5401"
       transform="matrix(0.47737908,0,0,0.47737908,687.89105,199.90946)">
      <g
         id="g5403"
         transform="translate(1.528789,0)">
        <rect
           y="241.63066"
           x="428.25745"
           height="11.910442"
           width="9.9900293"
           id="rect5405"
           style="fill:#d579bc;fill-opacity:1;stroke:none" />
        <rect
           style="fill:#008f63;fill-opacity:1;stroke:none"
           id="rect5407"
           width="9.9900293"
           height="22.247398"
           x="445.75745"
           y="231.29385" />
        <rect
           y="233.87819"
           x="480.75745"
           height="19.663044"
           width="9.9900293"
           id="rect5409"
           style="fill:#f79935;fill-opacity:1;stroke:none" />
        <rect
           style="fill:#0090b0;fill-opacity:1;stroke:none"
           id="rect5411"
           width="9.9900293"
           height="4.1280828"
           x="498.25745"
           y="249.41316" />
        <rect
           y="249.38326"
           x="463.25745"
           height="4.1578412"
           width="9.9900293"
           id="rect5413"
           style="fill:#e60064;fill-opacity:1;stroke:none" />
      </g>
      <rect
         style="fill:#000000;fill-opacity:1;fill-rule:evenodd;stroke:none"
         id="rect5415"
         width="100"
         height="3"
         x="419.78125"
         y="251.96281" />
    </g>
    <g
       transform="matrix(0.47737908,0,0,0.47737908,727.89105,255.90946)"
       id="g5417">
      <g
         transform="translate(1.528789,0)"
         id="g5419">
        <rect
           style="fill:#d579bc;fill-opacity:1;stroke:none"
           id="rect5421"
           width="9.9900293"
           height="4.1578412"
           x="428.25745"
           y="249.38326" />
        <rect
           y="249.38326"
           x="445.75745"
           height="4.1579938"
           width="9.9900293"
           id="rect5423"
           style="fill:#008f63;fill-opacity:1;stroke:none" />
        <rect
           style="fill:#f79935;fill-opacity:1;stroke:none"
           id="rect5425"
           width="9.9900293"
           height="9.3262424"
           x="480.75745"
           y="244.215" />
        <rect
           y="223.57115"
           x="498.25745"
           height="29.970089"
           width="9.9900293"
           id="rect5427"
           style="fill:#0090b0;fill-opacity:1;stroke:none" />
        <rect
           style="fill:#e60064;fill-opacity:1;stroke:none"
           id="rect5429"
           width="9.9900293"
           height="29.999847"
           x="463.25745"
           y="223.54124" />
      </g>
      <rect
         y="251.96281"
         x="419.78125"
         height="3"
         width="100"
         id="rect5431"
         style="fill:#000000;fill-opacity:1;fill-rule:evenodd;stroke:none" />
    </g>
    <g
       id="g5433"
       transform="matrix(0.47737908,0,0,0.47737908,587.89105,255.90946)">
      <g
         id="g5435"
         transform="translate(1.528789,0)">
        <rect
           y="248.52185"
           x="428.25745"
           height="5.0192409"
           width="9.9900293"
           id="rect5437"
           style="fill:#d579bc;fill-opacity:1;stroke:none" />
        <rect
           style="fill:#008f63;fill-opacity:1;stroke:none"
           id="rect5439"
           width="9.9900293"
           height="16.217596"
           x="445.75745"
           y="237.32365" />
        <rect
           y="233.0168"
           x="480.75745"
           height="20.524445"
           width="9.9900293"
           id="rect5441"
           style="fill:#f79935;fill-opacity:1;stroke:none" />
        <rect
           style="fill:#0090b0;fill-opacity:1;stroke:none"
           id="rect5443"
           width="9.9900293"
           height="4.1280828"
           x="498.25745"
           y="249.41316" />
        <rect
           y="223.54124"
           x="463.25745"
           height="29.999847"
           width="9.9900293"
           id="rect5445"
           style="fill:#e60064;fill-opacity:1;stroke:none" />
      </g>
      <rect
         style="fill:#000000;fill-opacity:1;fill-rule:evenodd;stroke:none"
         id="rect5447"
         width="100"
         height="3"
         x="419.78125"
         y="251.96281" />
    </g>
    <g
       transform="matrix(0.47737908,0,0,0.47737908,647.89105,255.90946)"
       id="g5449">
      <g
         transform="translate(1.528789,0)"
         id="g5451">
        <rect
           style="fill:#d579bc;fill-opacity:1;stroke:none"
           id="rect5453"
           width="9.9900293"
           height="8.4648418"
           x="428.25745"
           y="245.07625" />
        <rect
           y="248.52185"
           x="445.75745"
           height="5.0193939"
           width="9.9900293"
           id="rect5455"
           style="fill:#008f63;fill-opacity:1;stroke:none" />
        <rect
           style="fill:#f79935;fill-opacity:1;stroke:none"
           id="rect5457"
           width="9.9900293"
           height="21.385845"
           x="480.75745"
           y="232.1554" />
        <rect
           y="249.41316"
           x="498.25745"
           height="4.1280828"
           width="9.9900293"
           id="rect5459"
           style="fill:#0090b0;fill-opacity:1;stroke:none" />
        <rect
           style="fill:#e60064;fill-opacity:1;stroke:none"
           id="rect5461"
           width="9.9900293"
           height="29.999847"
           x="463.25745"
           y="223.54124" />
      </g>
      <rect
         y="251.96281"
         x="419.78125"
         height="3"
         width="100"
         id="rect5463"
         style="fill:#000000;fill-opacity:1;fill-rule:evenodd;stroke:none" />
    </g>
    <g
       id="g5465"
       transform="matrix(0.47737908,0,0,0.47737908,787.89105,255.90946)">
      <g
         id="g5467"
         transform="translate(1.528789,0)">
        <rect
           y="249.38326"
           x="428.25745"
           height="4.1578412"
           width="9.9900293"
           id="rect5469"
           style="fill:#d579bc;fill-opacity:1;stroke:none" />
        <rect
           style="fill:#008f63;fill-opacity:1;stroke:none"
           id="rect5471"
           width="9.9900293"
           height="30"
           x="445.75745"
           y="223.54124" />
        <rect
           y="248.522"
           x="480.75745"
           height="5.0192413"
           width="9.9900293"
           id="rect5473"
           style="fill:#f79935;fill-opacity:1;stroke:none" />
        <rect
           style="fill:#0090b0;fill-opacity:1;stroke:none"
           id="rect5475"
           width="9.9900293"
           height="17.910486"
           x="498.25745"
           y="235.63075" />
        <rect
           y="229.57104"
           x="463.25745"
           height="23.970045"
           width="9.9900293"
           id="rect5477"
           style="fill:#e60064;fill-opacity:1;stroke:none" />
      </g>
      <rect
         style="fill:#000000;fill-opacity:1;fill-rule:evenodd;stroke:none"
         id="rect5479"
         width="100"
         height="3"
         x="419.78125"
         y="251.96281" />
    </g>
    <g
       transform="matrix(0.47737908,0,0,0.47737908,847.89105,255.90946)"
       id="g5481">
      <g
         transform="translate(1.528789,0)"
         id="g5483">
        <rect
           style="fill:#d579bc;fill-opacity:1;stroke:none"
           id="rect5485"
           width="9.9900293"
           height="4.1578412"
           x="428.25745"
           y="249.38326" />
        <rect
           y="245.07625"
           x="445.75745"
           height="8.4649944"
           width="9.9900293"
           id="rect5487"
           style="fill:#008f63;fill-opacity:1;stroke:none" />
        <rect
           style="fill:#f79935;fill-opacity:1;stroke:none"
           id="rect5489"
           width="9.9900293"
           height="4.1578412"
           x="480.75745"
           y="249.38341" />
        <rect
           y="228.73955"
           x="498.25745"
           height="24.801687"
           width="9.9900293"
           id="rect5491"
           style="fill:#0090b0;fill-opacity:1;stroke:none" />
        <rect
           style="fill:#e60064;fill-opacity:1;stroke:none"
           id="rect5493"
           width="9.9900293"
           height="25.692846"
           x="463.25745"
           y="227.84825" />
      </g>
      <rect
         y="251.96281"
         x="419.78125"
         height="3"
         width="100"
         id="rect5495"
         style="fill:#000000;fill-opacity:1;fill-rule:evenodd;stroke:none" />
    </g>
    <g
       transform="matrix(0.47737908,0,0,0.47737908,807.89105,275.90946)"
       id="g5509">
      <g
         transform="translate(1.528789,0)"
         id="g5511">
        <rect
           style="fill:#d579bc;fill-opacity:1;stroke:none"
           id="rect5513"
           width="9.9900293"
           height="5.8806415"
           x="428.25745"
           y="247.66045" />
        <rect
           y="233.87805"
           x="445.75745"
           height="19.663197"
           width="9.9900293"
           id="rect5515"
           style="fill:#008f63;fill-opacity:1;stroke:none" />
        <rect
           style="fill:#f79935;fill-opacity:1;stroke:none"
           id="rect5517"
           width="9.9900293"
           height="5.0192413"
           x="480.75745"
           y="248.522" />
        <rect
           y="223.57115"
           x="498.25745"
           height="29.970089"
           width="9.9900293"
           id="rect5519"
           style="fill:#0090b0;fill-opacity:1;stroke:none" />
        <rect
           style="fill:#e60064;fill-opacity:1;stroke:none"
           id="rect5521"
           width="9.9900293"
           height="10.187643"
           x="463.25745"
           y="243.35345" />
      </g>
      <rect
         y="251.96281"
         x="419.78125"
         height="3"
         width="100"
         id="rect5523"
         style="fill:#000000;fill-opacity:1;fill-rule:evenodd;stroke:none" />
    </g>
    <g
       id="g5525"
       transform="matrix(0.47737908,0,0,0.47737908,747.89105,275.90946)">
      <g
         id="g5527"
         transform="translate(1.528789,0)">
        <rect
           y="247.66045"
           x="428.25745"
           height="5.8806415"
           width="9.9900293"
           id="rect5529"
           style="fill:#d579bc;fill-opacity:1;stroke:none" />
        <rect
           style="fill:#008f63;fill-opacity:1;stroke:none"
           id="rect5531"
           width="9.9900293"
           height="30"
           x="445.75745"
           y="223.54124" />
        <rect
           y="233.8782"
           x="480.75745"
           height="19.663044"
           width="9.9900293"
           id="rect5533"
           style="fill:#f79935;fill-opacity:1;stroke:none" />
        <rect
           style="fill:#0090b0;fill-opacity:1;stroke:none"
           id="rect5535"
           width="9.9900293"
           height="23.078888"
           x="498.25745"
           y="230.46236" />
        <rect
           y="240.76924"
           x="463.25745"
           height="12.771843"
           width="9.9900293"
           id="rect5537"
           style="fill:#e60064;fill-opacity:1;stroke:none" />
      </g>
      <rect
         style="fill:#000000;fill-opacity:1;fill-rule:evenodd;stroke:none"
         id="rect5539"
         width="100"
         height="3"
         x="419.78125"
         y="251.96281" />
    </g>
    <g
       transform="matrix(0.47737908,0,0,0.47737908,607.89105,275.90946)"
       id="g5541">
      <g
         transform="translate(1.528789,0)"
         id="g5543">
        <rect
           style="fill:#d579bc;fill-opacity:1;stroke:none"
           id="rect5545"
           width="9.9900293"
           height="3.2964408"
           x="428.25745"
           y="250.24464" />
        <rect
           y="226.12544"
           x="445.75745"
           height="27.4158"
           width="9.9900293"
           id="rect5547"
           style="fill:#008f63;fill-opacity:1;stroke:none" />
        <rect
           style="fill:#f79935;fill-opacity:1;stroke:none"
           id="rect5549"
           width="9.9900293"
           height="4.1578412"
           x="480.75745"
           y="249.38341" />
        <rect
           y="250.27455"
           x="498.25745"
           height="3.2666824"
           width="9.9900293"
           id="rect5551"
           style="fill:#0090b0;fill-opacity:1;stroke:none" />
        <rect
           style="fill:#e60064;fill-opacity:1;stroke:none"
           id="rect5553"
           width="9.9900293"
           height="23.970045"
           x="463.25745"
           y="229.57104" />
      </g>
      <rect
         y="251.96281"
         x="419.78125"
         height="3"
         width="100"
         id="rect5555"
         style="fill:#000000;fill-opacity:1;fill-rule:evenodd;stroke:none" />
    </g>
    <g
       id="g5557"
       transform="matrix(0.47737908,0,0,0.47737908,667.89105,275.90946)">
      <g
         id="g5559"
         transform="translate(1.528789,0)">
        <rect
           y="249.38326"
           x="428.25745"
           height="4.1578412"
           width="9.9900293"
           id="rect5561"
           style="fill:#d579bc;fill-opacity:1;stroke:none" />
        <rect
           style="fill:#008f63;fill-opacity:1;stroke:none"
           id="rect5563"
           width="9.9900293"
           height="22.247398"
           x="445.75745"
           y="231.29385" />
        <rect
           y="243.35361"
           x="480.75745"
           height="10.187643"
           width="9.9900293"
           id="rect5565"
           style="fill:#f79935;fill-opacity:1;stroke:none" />
        <rect
           style="fill:#0090b0;fill-opacity:1;stroke:none"
           id="rect5567"
           width="9.9900293"
           height="6.7122831"
           x="498.25745"
           y="246.82896" />
        <rect
           y="224.40265"
           x="463.25745"
           height="29.138447"
           width="9.9900293"
           id="rect5569"
           style="fill:#e60064;fill-opacity:1;stroke:none" />
      </g>
      <rect
         style="fill:#000000;fill-opacity:1;fill-rule:evenodd;stroke:none"
         id="rect5571"
         width="100"
         height="3"
         x="419.78125"
         y="251.96281" />
    </g>
    <g
       id="g6746"
       transform="translate(0,11.404005)">
      <g
         transform="translate(256.81579,-76.516853)"
         id="g6681">
        <g
           transform="translate(-54.087056,170.88072)"
           id="g6473">
          <text
             sodipodi:linespacing="125%"
             id="text6491"
             y="187.2767"
             x="430.91742"
             style="font-size:18.46687508px;font-style:normal;font-weight:normal;line-height:125%;letter-spacing:0px;word-spacing:0px;fill:#000000;fill-opacity:1;stroke:none;font-family:Sans"
             xml:space="preserve"><tspan
               style="font-size:12px;font-style:normal;font-variant:normal;font-weight:normal;font-stretch:normal;font-family:Source Sans Pro;-inkscape-font-specification:Source Sans Pro"
               y="187.2767"
               x="430.91742"
               id="tspan6493"
               sodipodi:role="line">Event at date <tspan
   style="font-style:italic"
   id="tspan6495">d</tspan></tspan></text>
        </g>
        <g
           id="g6464"
           transform="matrix(0.8,0,0,1.591263,80.747775,-276.00572)">
          <g
             transform="translate(-50.480385,135.48624)"
             id="g4690">
            <rect
               style="fill:#d579bc;fill-opacity:1;stroke:none"
               id="rect4692"
               width="9.9900293"
               height="3"
               x="428.25745"
               y="250.54123" />
            <rect
               y="243.02417"
               x="445.75745"
               height="10.517076"
               width="9.9900293"
               id="rect4694"
               style="fill:#008f63;fill-opacity:1;stroke:none" />
            <rect
               style="fill:#f79935;fill-opacity:1;stroke:none"
               id="rect4696"
               width="9.9900293"
               height="3"
               x="480.75745"
               y="250.54124" />
            <rect
               y="223.54124"
               x="498.25745"
               height="30"
               width="9.9900293"
               id="rect4698"
               style="fill:#0090b0;fill-opacity:1;stroke:none" />
            <rect
               style="fill:#e60064;fill-opacity:1;stroke:none"
               id="rect4700"
               width="9.9900293"
               height="3"
               x="463.25745"
               y="250.54123" />
          </g>
          <rect
             y="387.93533"
             x="367.77206"
             height="1.8852949"
             width="100"
             id="rect4702"
             style="fill:#000000;fill-opacity:1;fill-rule:evenodd;stroke:none" />
        </g>
      </g>
      <g
         id="g6650"
         transform="translate(-3.0204531,0)">
        <text
           xml:space="preserve"
           style="font-size:18.46687508px;font-style:normal;font-weight:normal;line-height:125%;letter-spacing:0px;word-spacing:0px;fill:#000000;fill-opacity:1;stroke:none;font-family:Sans"
           x="-243.40643"
           y="363.3457"
           id="text4720"
           sodipodi:linespacing="125%"
           transform="matrix(0,-1,1,0,0,0)"><tspan
             sodipodi:role="line"
             id="tspan4722"
             x="-243.40643"
             y="363.3457"
             style="font-size:12px;font-style:normal;font-variant:normal;font-weight:normal;font-stretch:normal;font-family:Source Sans Pro;-inkscape-font-specification:Source Sans Pro">Bangkok</tspan></text>
        <text
           sodipodi:linespacing="125%"
           id="text4728"
           y="363.0097"
           x="-307.15109"
           style="font-size:18.46687508px;font-style:normal;font-weight:normal;line-height:125%;letter-spacing:0px;word-spacing:0px;fill:#000000;fill-opacity:1;stroke:none;font-family:Sans"
           xml:space="preserve"
           transform="matrix(0,-1,1,0,0,0)"><tspan
             style="font-size:12px;font-style:normal;font-variant:normal;font-weight:normal;font-stretch:normal;font-family:Source Sans Pro;-inkscape-font-specification:Source Sans Pro"
             y="363.0097"
             x="-307.15109"
             id="tspan4730"
             sodipodi:role="line">Hong Kong</tspan></text>
      </g>
      <g
         transform="translate(-3.7626744,0)"
         id="g6656">
        <g
           transform="matrix(2.5383116,0,0,-0.1739675,386.8815,243.08397)"
           id="g5654"
           clip-path="none">
          <g
             clip-path="none"
             transform="translate(-21.668707,-67.71471)"
             id="g6318">
            <path
               id="path5698"
               style="fill:#0090b0;fill-opacity:1;fill-rule:nonzero;stroke:none"
               d="m 52.01,80.07 0.65,-10 0.65,14.12 0.65,-5.19 0.65,-2.38 0.65,-8.68 0.65,7.22 0.65,6.14 0.65,5.01 0.65,-4.09 0.65,-5.16 0.65,-5.24 0.65,7.07 0.65,-8.31 0.66,6.35 0.65,-13.33 0.65,22.95 0.65,-5.09 0.65,-13.07 0.65,20.25 0.65,1.83 0.65,-20.58 0.65,5.14 0.65,-0.4 0.65,9.96 0.65,-5.59 0.65,-6.16 0.65,-8.7 0.65,14.26 0.65,-1.47 0.65,3.89 0.65,-4.73 0.66,2.86 0.65,1.23 0.65,-9.45 0.65,-4.95 0.65,6.29 0.65,-7.18 0.65,7.02 0.65,-5.6 0.65,36.94 0.65,62.53 0.65,-9.56 0.65,-8.33 0.65,-22.55 0.65,3.19 0.65,-19.73 0.65,25 0.65,5.52 0.65,-35.66 0.66,44.24 0.65,36.24 0.65,-82.39 0.65,51.39 0.65,-10.76 0.65,-11.76 0.65,-12 0.65,25.67 0.65,-40.05 0.65,42.04 0.65,-39.9 0.65,11 0.65,-8.14 0.65,-7.31 0.65,14.58 0.65,-36.14 0.65,16.99 0.65,35.3 0.66,-25.55 0.65,-23.64 0.65,13.83 0.65,-9.16 0.65,12.25 0.65,-24.14 0.65,-8.76 0.65,14.12 0.65,-8.85 0.65,-7.03 0.65,9.65 0.65,-0.13 0.65,2.51 0.65,-0.74 0.65,-11.89 0.65,7.62 0.65,-1.69 0.65,3.64 0.66,10.8 0.65,-13.61 0.65,21.51 0.65,-16.49 0.65,-0.52 0.65,2.28 0.65,-5.72 0.65,6.25 0.65,10.11 0.65,-19.93 0.65,18.65 0.65,-17.05 0.65,-2.01 0.65,-0.01 0,-17.61 -0.65,0 -0.65,0 -0.65,0 -0.65,0 -0.65,0 -0.65,0 -0.65,0 -0.65,0 -0.65,0 -0.65,0 -0.65,0 -0.65,0 -0.65,0 -0.66,0 -0.65,0 -0.65,0 -0.65,0 -0.65,0 -0.65,0 -0.65,0 -0.65,0 -0.65,0 -0.65,0 -0.65,0 -0.65,0 -0.65,0 -0.65,0 -0.65,0 -0.65,0 -0.65,0 -0.65,0 -0.66,0 -0.65,0 -0.65,0 -0.65,0 -0.65,0 -0.65,0 -0.65,0 -0.65,0 -0.65,0 -0.65,0 -0.65,0 -0.65,0 -0.65,0 -0.65,0 -0.65,0 -0.65,0 -0.65,0 -0.65,0 -0.66,0 -0.65,0 -0.65,0 -0.65,0 -0.65,0 -0.65,0 -0.65,0 -0.65,0 -0.65,0 -0.65,0 -0.65,0 -0.65,0 -0.65,0 -0.65,0 -0.65,0 -0.65,0 -0.65,0 -0.65,0 -0.66,0 -0.65,0 -0.65,0 -0.65,0 -0.65,0 -0.65,0 -0.65,0 -0.65,0 -0.65,0 -0.65,0 -0.65,0 -0.65,0 -0.65,0 -0.65,0 -0.65,0 -0.65,0 -0.65,0 -0.65,0 -0.66,0 -0.65,0 -0.65,0 -0.65,0 -0.65,0 -0.65,0 -0.65,0 -0.65,0 -0.65,0 -0.65,0 -0.65,0 -0.65,0 -0.65,0 -0.65,0 0,28.72 z"
               inkscape:connector-curvature="0" />
            <path
               id="path5700"
               style="fill:#f79935;fill-opacity:1;fill-rule:nonzero;stroke:none"
               d="m 52.01,150.21 0.65,-41.35 0.65,96.9 0.65,-68.49 0.65,-2.86 0.65,15.63 0.65,-20.86 0.65,1.84 0.65,32.54 0.65,-9.6 0.65,8.27 0.65,-2.18 0.65,-9.02 0.65,-3.23 0.66,-33.55 0.65,55.17 0.65,-13.24 0.65,12.04 0.65,-22.74 0.65,14.83 0.65,21.74 0.65,-54.58 0.65,8.8 0.65,12.88 0.65,-25.44 0.65,14.17 0.65,3.37 0.65,-6.98 0.65,-1.61 0.65,-14.67 0.65,24 0.65,-8.44 0.66,28.96 0.65,-12.45 0.65,-17.18 0.65,9.37 0.65,-2.01 0.65,-24.91 0.65,24.28 0.65,-19.15 0.65,35.87 0.65,28.63 0.65,6.32 0.65,-21.34 0.65,-17.8 0.65,13.84 0.65,-11.88 0.65,44.87 0.65,-19.96 0.65,5.3 0.66,14.62 0.65,27.63 0.65,-60.47 0.65,57.02 0.65,-21.33 0.65,-19.48 0.65,-10.27 0.65,42 0.65,-56.83 0.65,29.3 0.65,-34.77 0.65,17.07 0.65,-10.87 0.65,-9.09 0.65,19.68 0.65,-14.26 0.65,-13.81 0.65,67.72 0.66,-12.45 0.65,-63.77 0.65,29.77 0.65,-0.45 0.65,-17.79 0.65,-14.41 0.65,5.24 0.65,9.1 0.65,-8.32 0.65,-36.71 0.65,89.7 0.65,-45.18 0.65,13.12 0.65,-42.77 0.65,-26.96 0.65,46.01 0.65,14.81 0.65,-9.61 0.66,32.8 0.65,-52.79 0.65,59.32 0.65,-46.78 0.65,23.91 0.65,0.28 0.65,50.57 0.65,-35.01 0.65,-21.86 0.65,-9.32 0.65,29.99 0.65,-18.32 0.65,-7.11 0.65,-34.43 0,-39.79 -0.65,0.01 -0.65,2.01 -0.65,17.05 -0.65,-18.65 -0.65,19.93 -0.65,-10.11 -0.65,-6.25 -0.65,5.72 -0.65,-2.28 -0.65,0.52 -0.65,16.49 -0.65,-21.51 -0.65,13.61 -0.66,-10.8 -0.65,-3.64 -0.65,1.69 -0.65,-7.62 -0.65,11.89 -0.65,0.74 -0.65,-2.51 -0.65,0.13 -0.65,-9.65 -0.65,7.03 -0.65,8.85 -0.65,-14.12 -0.65,8.76 -0.65,24.14 -0.65,-12.25 -0.65,9.16 -0.65,-13.83 -0.65,23.64 -0.66,25.55 -0.65,-35.3 -0.65,-16.99 -0.65,36.14 -0.65,-14.58 -0.65,7.31 -0.65,8.14 -0.65,-11 -0.65,39.9 -0.65,-42.04 -0.65,40.05 -0.65,-25.67 -0.65,12 -0.65,11.76 -0.65,10.76 -0.65,-51.39 -0.65,82.39 -0.65,-36.24 -0.66,-44.24 -0.65,35.66 -0.65,-5.52 -0.65,-25 -0.65,19.73 -0.65,-3.19 -0.65,22.55 -0.65,8.33 -0.65,9.56 -0.65,-62.53 -0.65,-36.94 -0.65,5.6 -0.65,-7.02 -0.65,7.18 -0.65,-6.29 -0.65,4.95 -0.65,9.45 -0.65,-1.23 -0.66,-2.86 -0.65,4.73 -0.65,-3.89 -0.65,1.47 -0.65,-14.26 -0.65,8.7 -0.65,6.16 -0.65,5.59 -0.65,-9.96 -0.65,0.4 -0.65,-5.14 -0.65,20.58 -0.65,-1.83 -0.65,-20.25 -0.65,13.07 -0.65,5.09 -0.65,-22.95 -0.65,13.33 -0.66,-6.35 -0.65,8.31 -0.65,-7.07 -0.65,5.24 -0.65,5.16 -0.65,4.09 -0.65,-5.01 -0.65,-6.14 -0.65,-7.22 -0.65,8.68 -0.65,2.38 -0.65,5.19 -0.65,-14.12 -0.65,10 0,70.14 z"
               inkscape:connector-curvature="0" />
            <path
               id="path5702"
               style="fill:#e60064;fill-opacity:1;fill-rule:nonzero;stroke:none"
               d="m 52.01,166.35 0.65,-44.26 0.65,95.73 0.65,-67.64 0.65,-1.11 0.65,11.52 0.65,-20.69 0.65,4.9 0.65,39.59 0.65,-7.97 0.65,-0.37 0.65,-7.91 0.65,0.52 0.65,-10.46 0.66,-32.64 0.65,59.87 0.65,-11.87 0.65,8.72 0.65,-11.5 0.65,3.31 0.65,17.69 0.65,-50.97 0.65,15.49 0.65,5.78 0.65,-9.42 0.65,3.52 0.65,2.35 0.65,-12.91 0.65,14.7 0.65,-17.81 0.65,17.93 0.65,-3.74 0.66,14.56 0.65,-11.39 0.65,-14.82 0.65,13.81 0.65,-10.77 0.65,-20.27 0.65,22.22 0.65,-16.88 0.65,40.15 0.65,18.4 0.65,17.2 0.65,-18.97 0.65,-21.07 0.65,4.18 0.65,-3.26 0.65,46 0.65,-26.94 0.65,11.43 0.66,19.88 0.65,15.62 0.65,-59.12 0.65,58.81 0.65,-20.91 0.65,-19.76 0.65,-4.99 0.65,42.87 0.65,-65.55 0.65,37.22 0.65,-43.98 0.65,13.57 0.65,-3.1 0.65,-2.52 0.65,10.01 0.65,-13.02 0.65,-11.61 0.65,64.47 0.66,-6.09 0.65,-70.51 0.65,42.57 0.65,-13.15 0.65,-2.79 0.65,-30.26 0.65,15.55 0.65,-2.79 0.65,-0.08 0.65,-44.36 0.65,91.44 0.65,-44.69 0.65,21.54 0.65,-40.78 0.65,-34.029999 0.65,39.179999 0.65,15.13 0.65,-2.63 0.66,36.89 0.65,-55.62 0.65,68.36 0.65,-53.39 0.65,24.94 0.65,-7.03 0.65,50.78 0.65,-29.94 0.65,-24.5 0.65,-4.66 0.65,20.83 0.65,-17.88 0.65,-7.22 0.65,-35.3 0,-8.93 -0.65,34.43 -0.65,7.11 -0.65,18.32 -0.65,-29.99 -0.65,9.32 -0.65,21.86 -0.65,35.01 -0.65,-50.57 -0.65,-0.28 -0.65,-23.91 -0.65,46.78 -0.65,-59.32 -0.65,52.79 -0.66,-32.8 -0.65,9.61 L 106,132.3 105.35,86.290001 104.7,113.25 l -0.65,42.77 -0.65,-13.12 -0.65,45.18 -0.65,-89.699999 -0.65,36.709999 -0.65,8.32 -0.65,-9.1 -0.65,-5.24 -0.65,14.41 -0.65,17.79 -0.65,0.45 -0.65,-29.77 -0.65,63.77 -0.66,12.45 -0.65,-67.72 -0.65,13.81 -0.65,14.26 -0.65,-19.68 -0.65,9.09 -0.65,10.87 -0.65,-17.07 -0.65,34.77 -0.65,-29.3 -0.65,56.83 -0.65,-42 -0.65,10.27 -0.65,19.48 -0.65,21.33 -0.65,-57.02 -0.65,60.47 -0.65,-27.63 -0.66,-14.62 -0.65,-5.3 -0.65,19.96 -0.65,-44.87 -0.65,11.88 -0.65,-13.84 -0.65,17.8 -0.65,21.34 -0.65,-6.32 -0.65,-28.63 -0.65,-35.87 -0.65,19.15 -0.65,-24.28 -0.65,24.91 -0.65,2.01 -0.65,-9.37 -0.65,17.18 -0.65,12.45 -0.66,-28.96 -0.65,8.44 -0.65,-24 -0.65,14.67 -0.65,1.61 -0.65,6.98 -0.65,-3.37 -0.65,-14.17 -0.65,25.44 -0.65,-12.88 -0.65,-8.8 -0.65,54.58 -0.65,-21.74 -0.65,-14.83 -0.65,22.74 -0.65,-12.04 -0.65,13.24 -0.65,-55.17 -0.66,33.55 -0.65,3.23 -0.65,9.02 -0.65,2.18 -0.65,-8.27 -0.65,9.6 -0.65,-32.54 -0.65,-1.84 -0.65,20.86 -0.65,-15.63 -0.65,2.86 -0.65,68.49 -0.65,-96.9 -0.65,41.35 0,16.14 z"
               inkscape:connector-curvature="0" />
            <path
               id="path5704"
               style="fill:#008f63;fill-opacity:1;fill-rule:nonzero;stroke:none"
               d="m 52.01,299.5 0.65,11.83 0.65,4.96 0.65,-8.48 0.65,-9.8 0.65,-4.57 0.65,9.36 0.65,-12.34 0.65,2.89 0.65,-41.86 0.65,39.94 0.65,-2.51 0.65,10.8 0.65,5.04 0.66,-16.42 0.65,20.96 0.65,2.22 0.65,-12.86 0.65,-17.59 0.65,-2.06 0.65,17.17 0.65,4.31 0.65,11.99 0.65,-32.98 0.65,13.57 0.65,0.69 0.65,-4.52 0.65,16.15 0.65,-4.64 0.65,-0.97 0.65,-8.25 0.65,5.72 0.66,6.8 0.65,-19.1 0.65,11.82 0.65,-15.04 0.65,-0.1 0.65,28.83 0.65,-28.68 0.65,33.26 0.65,-30.88 0.65,27.15 0.65,-16.43 0.65,27.3 0.65,-15.79 0.65,7.67 0.65,-11.71 0.65,0.97 0.65,10.94 0.65,-7.71 0.66,6.13 0.65,4.42 0.65,-13.73 0.65,22.62 0.65,-11.49 0.65,-8.35 0.65,5.1 0.65,-17.88 0.65,16.16 0.65,2.19 0.65,-8.43 0.65,-8.34 0.65,34.29 0.65,-43.44 0.65,19.69 0.65,-6.62 0.65,19.84 0.65,-29.86 0.66,9.53 0.65,-1.81 0.65,15.99 0.65,-2.62 0.65,-22.3 0.65,12.63 0.65,7.61 0.65,-3.12 0.65,-28.2 0.65,6.98 0.65,31.44 0.65,-5.95 0.65,7.15 0.65,-9.45 0.65,-8.79 0.65,-4.37 0.65,23.97 0.65,-20.92 0.66,3.99 0.65,13.58 0.65,-21.31 0.65,4.36 0.65,-5.94 0.65,5.45 0.65,6.11 0.65,-15.38 0.65,-0.63 0.65,-11.73 0.65,19.8 0.65,7.65 0.65,-6.64 0.65,-13.82 0,-164.43 -0.65,35.3 -0.65,7.22 -0.65,17.88 -0.65,-20.83 -0.65,4.66 -0.65,24.5 -0.65,29.94 -0.65,-50.78 -0.65,7.03 -0.65,-24.94 -0.65,53.39 -0.65,-68.36 -0.65,55.62 -0.66,-36.89 -0.65,2.63 -0.65,-15.13 -0.65,-39.18 -0.65,34.03 -0.65,40.78 -0.65,-21.54 -0.65,44.69 -0.65,-91.44 -0.65,44.36 -0.65,0.08 -0.65,2.79 -0.65,-15.55 -0.65,30.26 -0.65,2.79 -0.65,13.15 -0.65,-42.57 -0.65,70.51 -0.66,6.09 -0.65,-64.47 -0.65,11.61 -0.65,13.02 -0.65,-10.01 -0.65,2.52 -0.65,3.1 -0.65,-13.57 -0.65,43.98 -0.65,-37.22 -0.65,65.55 -0.65,-42.87 -0.65,4.99 -0.65,19.76 -0.65,20.91 -0.65,-58.81 -0.65,59.12 -0.65,-15.62 -0.66,-19.88 -0.65,-11.43 -0.65,26.94 -0.65,-46 -0.65,3.26 -0.65,-4.18 -0.65,21.07 -0.65,18.97 -0.65,-17.2 -0.65,-18.4 -0.65,-40.15 -0.65,16.88 -0.65,-22.22 -0.65,20.27 -0.65,10.77 -0.65,-13.81 -0.65,14.82 -0.65,11.39 -0.66,-14.56 -0.65,3.74 -0.65,-17.93 -0.65,17.81 -0.65,-14.7 -0.65,12.91 -0.65,-2.35 -0.65,-3.52 -0.65,9.42 -0.65,-5.78 -0.65,-15.49 -0.65,50.97 -0.65,-17.69 -0.65,-3.31 -0.65,11.5 -0.65,-8.72 -0.65,11.87 -0.65,-59.87 -0.66,32.64 -0.65,10.46 -0.65,-0.52 -0.65,7.91 -0.65,0.37 -0.65,7.97 -0.65,-39.59 -0.65,-4.9 -0.65,20.69 -0.65,-11.52 -0.65,1.11 -0.65,67.64 -0.65,-95.73 -0.65,44.26 0,133.15 z"
               inkscape:connector-curvature="0" />
            <path
               id="path5706"
               style="fill:#d579bc;fill-opacity:1;fill-rule:nonzero;stroke:none"
               d="m 52.01,338.76 0.65,0 0.65,0 0.65,0 0.65,0 0.65,0 0.65,0 0.65,0 0.65,0 0.65,0 0.65,0 0.65,0 0.65,0 0.65,0 0.66,0 0.65,0 0.65,0 0.65,0 0.65,0 0.65,0 0.65,0 0.65,0 0.65,0 0.65,0 0.65,0 0.65,0 0.65,0 0.65,0 0.65,0 0.65,0 0.65,0 0.65,0 0.66,0 0.65,0 0.65,0 0.65,0 0.65,0 0.65,0 0.65,0 0.65,0 0.65,0 0.65,0 0.65,0 0.65,0 0.65,0 0.65,0 0.65,0 0.65,0 0.65,0 0.65,0 0.66,0 0.65,0 0.65,0 0.65,0 0.65,0 0.65,0 0.65,0 0.65,0 0.65,0 0.65,0 0.65,0 0.65,0 0.65,0 0.65,0 0.65,0 0.65,0 0.65,0 0.65,0 0.66,0 0.65,0 0.65,0 0.65,0 0.65,0 0.65,0 0.65,0 0.65,0 0.65,0 0.65,0 0.65,0 0.65,0 0.65,0 0.65,0 0.65,0 0.65,0 0.65,0 0.65,0 0.66,0 0.65,0 0.65,0 0.65,0 0.65,0 0.65,0 0.65,0 0.65,0 0.65,0 0.65,0 0.65,0 0.65,0 0.65,0 0.65,0 0,-56.65 -0.65,13.82 -0.65,6.64 -0.65,-7.65 -0.65,-19.8 -0.65,11.73 -0.65,0.63 -0.65,15.38 -0.65,-6.11 -0.65,-5.45 -0.65,5.94 -0.65,-4.36 -0.65,21.31 -0.65,-13.58 -0.66,-3.99 -0.65,20.92 -0.65,-23.97 -0.65,4.37 -0.65,8.79 -0.65,9.45 -0.65,-7.15 -0.65,5.95 -0.65,-31.44 -0.65,-6.98 -0.65,28.2 -0.65,3.12 -0.65,-7.61 -0.65,-12.63 -0.65,22.3 -0.65,2.62 -0.65,-15.99 -0.65,1.81 -0.66,-9.53 -0.65,29.86 -0.65,-19.84 -0.65,6.62 -0.65,-19.69 -0.65,43.44 -0.65,-34.29 -0.65,8.34 -0.65,8.43 -0.65,-2.19 -0.65,-16.16 -0.65,17.88 -0.65,-5.1 -0.65,8.35 -0.65,11.49 -0.65,-22.62 -0.65,13.73 -0.65,-4.42 -0.66,-6.13 -0.65,7.71 -0.65,-10.94 -0.65,-0.97 -0.65,11.71 -0.65,-7.67 -0.65,15.79 -0.65,-27.3 -0.65,16.43 -0.65,-27.15 -0.65,30.88 -0.65,-33.26 -0.65,28.68 -0.65,-28.83 -0.65,0.1 -0.65,15.04 -0.65,-11.82 -0.65,19.1 -0.66,-6.8 -0.65,-5.72 -0.65,8.25 -0.65,0.97 -0.65,4.64 -0.65,-16.15 -0.65,4.52 -0.65,-0.69 -0.65,-13.57 -0.65,32.98 -0.65,-11.99 -0.65,-4.31 -0.65,-17.17 -0.65,2.06 -0.65,17.59 -0.65,12.86 -0.65,-2.22 -0.65,-20.96 -0.66,16.42 -0.65,-5.04 -0.65,-10.8 -0.65,2.51 -0.65,-39.94 -0.65,41.86 -0.65,-2.89 -0.65,12.34 -0.65,-9.36 -0.65,4.57 -0.65,9.8 -0.65,8.48 -0.65,-4.96 -0.65,-11.83 0,39.26 z"
               inkscape:connector-curvature="0" />
          </g>
        </g>
        <g
           transform="matrix(2.5379173,0,0,-0.1739675,111.15858,315.77502)"
           id="g5712"
           clip-path="none">
          <g
             transform="translate(27.337414,16.25153)"
             id="g6325">
            <path
               id="path5756"
               style="fill:#0090b0;fill-opacity:1;fill-rule:nonzero;stroke:none"
               d="m 111.65,64.07 0.65,2.25 0.65,0.87 0.65,0.96 0.66,-6.37 0.65,7.37 0.65,2.01 0.65,-1.93 0.65,-5.47 0.65,-1.71 0.65,1.09 0.65,4.64 0.65,-6.92 0.65,2.05 0.65,3.63 0.65,-2.84 0.65,5.41 0.65,-1.32 0.65,-1.29 0.65,-4.05 0.65,-3.53 0.65,0.74 0.66,3.32 0.65,3.81 0.65,11.48 0.65,-18.56 0.65,7.41 0.65,-2.69 0.65,-6.46 0.65,9.97 0.65,-8.61 0.65,7.94 0.65,-4.61 0.65,13.1 0.65,-16.09 0.65,4.13 0.65,6.27 0.65,5.42 0.65,-5.78 0.65,2.23 0.66,34.6 0.65,20.76 0.65,13.1 0.65,-7.38 0.65,-15.4 0.65,-4.16 0.65,30.27 0.65,-23.22 0.65,15.79 0.65,22.69 0.65,-58.18 0.65,17.5 0.65,59.41 0.65,-63.27 0.65,-2.62 0.65,-18.42 0.65,8.13 0.65,-10.96 0.66,51.38 0.65,-65.58 0.65,16.42 0.65,40.5 0.65,-28.91 0.65,-19.1 0.65,7.75 0.65,-19.28 0.65,5.86 0.65,16.07 0.65,-14.64 0.65,4.45 0.65,-13.62 0.65,-6.9 0.65,5.56 0.65,-1.51 0.65,-1.31 0.65,-5.1 0.66,-5.06 0.65,5.75 0.65,-4.65 0.65,14.44 0.65,-12.14 0.65,3.23 0.65,0.9 0.65,-1.38 0.65,3.01 0.65,17.26 0.65,-15.58 0.65,-2.84 0.65,-2.84 0.65,1.18 0.65,3.23 0.65,-5.46 0.65,9.38 0.65,-11.63 0.66,4.08 0.65,-3.46 0.65,0.78 0.65,-1.77 0.65,5.6 0.65,-6.64 0,-6.66 -0.65,0 -0.65,0 -0.65,0 -0.65,0 -0.65,0 -0.66,0 -0.65,0 -0.65,0 -0.65,0 -0.65,0 -0.65,0 -0.65,0 -0.65,0 -0.65,0 -0.65,0 -0.65,0 -0.65,0 -0.65,0 -0.65,0 -0.65,0 -0.65,0 -0.65,0 -0.65,0 -0.66,0 -0.65,0 -0.65,0 -0.65,0 -0.65,0 -0.65,0 -0.65,0 -0.65,0 -0.65,0 -0.65,0 -0.65,0 -0.65,0 -0.65,0 -0.65,0 -0.65,0 -0.65,0 -0.65,0 -0.65,0 -0.66,0 -0.65,0 -0.65,0 -0.65,0 -0.65,0 -0.65,0 -0.65,0 -0.65,0 -0.65,0 -0.65,0 -0.65,0 -0.65,0 -0.65,0 -0.65,0 -0.65,0 -0.65,0 -0.65,0 -0.65,0 -0.66,0 -0.65,0 -0.65,0 -0.65,0 -0.65,0 -0.65,0 -0.65,0 -0.65,0 -0.65,0 -0.65,0 -0.65,0 -0.65,0 -0.65,0 -0.65,0 -0.65,0 -0.65,0 -0.65,0 -0.65,0 -0.66,0 -0.65,0 -0.65,0 -0.65,0 -0.65,0 -0.65,0 -0.65,0 -0.65,0 -0.65,0 -0.65,0 -0.65,0 -0.65,0 -0.65,0 -0.65,0 -0.65,0 -0.65,0 -0.65,0 -0.65,0 -0.66,0 -0.65,0 -0.65,0 -0.65,0 0,12.72 z"
               inkscape:connector-curvature="0" />
            <path
               id="path5758"
               style="fill:#f79935;fill-opacity:1;fill-rule:nonzero;stroke:none"
               d="m 111.65,118.91 0.65,-33.07 0.65,28.48 0.65,-21.43 0.66,-13.37 0.65,32.71 0.65,31.63 0.65,-52.23 0.65,8.53 0.65,-14.17 0.65,0.61 0.65,13.3 0.65,-14.3 0.65,5.44 0.65,19.29 0.65,-0.04 0.65,-17.2 0.65,21.73 0.65,-7.07 0.65,-27.4 0.65,5.54 0.65,2.76 0.66,18.98 0.65,-1.62 0.65,29.68 0.65,-53.73 0.65,16.17 0.65,-6.69 0.65,-18.77 0.65,26.27 0.65,-1.45 0.65,8.83 0.65,-7.63 0.65,23.49 0.65,-23.49 0.65,17.2 0.65,-17.92 0.65,12.73 0.65,-14.94 0.65,13.58 0.66,12.69 0.65,24.46 0.65,9.5 0.65,16.09 0.65,-38.36 0.65,3.32 0.65,26.25 0.65,-24.87 0.65,22.09 0.65,31.44 0.65,-63.07 0.65,28.63 0.65,50.15 0.65,-73.1 0.65,-12.24 0.65,-4.67 0.65,19.13 0.65,-9.46 0.66,41.7 0.65,-57.49 0.65,17.8 0.65,33.87 0.65,-22.22 0.65,-9.05 0.65,-5.11 0.65,-18.24 0.65,-1.08 0.65,23.45 0.65,-16.1 0.65,27.69 0.65,-36.15 0.65,-3.73 0.65,5.98 0.65,-4.76 0.65,4.04 0.65,-11.24 0.66,0.76 0.65,3.27 0.65,-12.27 0.65,15.95 0.65,-26.09 0.65,17.27 0.65,9.92 0.65,1.26 0.65,3.98 0.65,26.22 0.65,-38.32 0.65,0.71 0.65,-0.53 0.65,-11.09 0.65,8.99 0.65,7.36 0.65,-12.98 0.65,2.82 0.66,7.61 0.65,-17.91 0.65,9.45 0.65,-1.93 0.65,26.57 0.65,-2.75 0,-56.94 -0.65,6.64 -0.65,-5.6 -0.65,1.77 -0.65,-0.78 -0.65,3.46 -0.66,-4.08 -0.65,11.63 -0.65,-9.38 -0.65,5.46 -0.65,-3.23 -0.65,-1.18 -0.65,2.84 -0.65,2.84 -0.65,15.58 -0.65,-17.26 -0.65,-3.01 -0.65,1.38 -0.65,-0.9 -0.65,-3.23 -0.65,12.14 -0.65,-14.44 -0.65,4.65 -0.65,-5.75 -0.66,5.06 -0.65,5.1 -0.65,1.31 -0.65,1.51 -0.65,-5.56 -0.65,6.9 -0.65,13.62 -0.65,-4.45 -0.65,14.64 -0.65,-16.07 -0.65,-5.86 -0.65,19.28 -0.65,-7.75 -0.65,19.1 -0.65,28.91 -0.65,-40.5 -0.65,-16.42 -0.65,65.58 -0.66,-51.38 -0.65,10.96 -0.65,-8.13 -0.65,18.42 -0.65,2.62 -0.65,63.27 -0.65,-59.41 -0.65,-17.5 -0.65,58.18 -0.65,-22.69 -0.65,-15.79 -0.65,23.22 -0.65,-30.27 -0.65,4.16 -0.65,15.4 -0.65,7.38 -0.65,-13.1 -0.65,-20.76 -0.66,-34.6 -0.65,-2.23 -0.65,5.78 -0.65,-5.42 -0.65,-6.27 -0.65,-4.13 -0.65,16.09 -0.65,-13.1 -0.65,4.61 -0.65,-7.94 -0.65,8.61 -0.65,-9.97 -0.65,6.46 -0.65,2.69 -0.65,-7.41 -0.65,18.56 -0.65,-11.48 -0.65,-3.81 -0.66,-3.32 -0.65,-0.74 -0.65,3.53 -0.65,4.05 -0.65,1.29 -0.65,1.32 -0.65,-5.41 -0.65,2.84 -0.65,-3.63 -0.65,-2.05 -0.65,6.92 -0.65,-4.64 -0.65,-1.09 -0.65,1.71 -0.65,5.47 -0.65,1.93 -0.65,-2.01 -0.65,-7.37 -0.66,6.37 -0.65,-0.96 -0.65,-0.87 -0.65,-2.25 0,54.84 z"
               inkscape:connector-curvature="0" />
            <path
               id="path5760"
               style="fill:#e60064;fill-opacity:1;fill-rule:nonzero;stroke:none"
               d="m 111.65,241.18 0.65,-15.08 0.65,-31.71 0.65,27.09 0.66,13.01 0.65,-26.65 0.65,13.24 0.65,-30.75 0.65,63.97 0.65,-11.46 0.65,-28.67 0.65,8.92 0.65,-17.15 0.65,56.45 0.65,-57.7 0.65,50.64 0.65,-19.34 0.65,-38.24 0.65,12.53 0.65,27.69 0.65,13.22 0.65,-31.61 0.66,-19.88 0.65,39.18 0.65,-24.65 0.65,25.04 0.65,-18.28 0.65,22.96 0.65,8.86 0.65,12.73 0.65,-38.68 0.65,-23.47 0.65,29.11 0.65,-16.89 0.65,24.71 0.65,-2.37 0.65,-8.2 0.65,-0.03 0.65,-14.03 0.65,30.18 0.66,-41.29 0.65,42.24 0.65,-3.34 0.65,28 0.65,-24.19 0.65,-3.32 0.65,-8.39 0.65,-14.88 0.65,28.01 0.65,32.31 0.65,-93.05 0.65,88.42 0.65,-27.25 0.65,-23.28 0.65,-12.58 0.65,27.71 0.65,-22.95 0.65,38.12 0.66,-8.55 0.65,0.51 0.65,-63.63 0.65,73.57 0.65,-16.53 0.65,8.17 0.65,-16.27 0.65,-11.1 0.65,-33.11 0.65,66.22 0.65,-24.72 0.65,-21.53 0.65,39.83 0.65,-8.97 0.65,11.41 0.65,-66.55 0.65,51.51 0.65,-45.41 0.66,19.63 0.65,19.54 0.65,-54.72 0.65,57.29 0.65,0.24 0.65,-84.72 0.65,90.5 0.65,-67.19 0.65,53.61 0.65,-28.11 0.65,26.41 0.65,1.54 0.65,-29.53 0.65,41.94 0.65,-30.05 0.65,33.48 0.65,-38.2 0.65,42.53 0.66,9.04 0.65,-15.84 0.65,-0.42 0.65,41.45 0.65,-55.58 0.65,-41.8 0,-67.1 -0.65,2.75 -0.65,-26.57 -0.65,1.93 -0.65,-9.45 -0.65,17.91 -0.66,-7.61 -0.65,-2.82 -0.65,12.98 -0.65,-7.36 -0.65,-8.99 -0.65,11.09 -0.65,0.53 -0.65,-0.71 -0.65,38.32 -0.65,-26.22 -0.65,-3.98 -0.65,-1.26 -0.65,-9.92 -0.65,-17.27 -0.65,26.09 -0.65,-15.95 -0.65,12.27 -0.65,-3.27 -0.66,-0.76 -0.65,11.24 -0.65,-4.04 -0.65,4.76 -0.65,-5.98 -0.65,3.73 -0.65,36.15 -0.65,-27.69 -0.65,16.1 -0.65,-23.45 -0.65,1.08 -0.65,18.24 -0.65,5.11 -0.65,9.05 -0.65,22.22 -0.65,-33.87 -0.65,-17.8 -0.65,57.49 -0.66,-41.7 -0.65,9.46 -0.65,-19.13 -0.65,4.67 -0.65,12.24 -0.65,73.1 -0.65,-50.15 -0.65,-28.63 -0.65,63.07 -0.65,-31.44 -0.65,-22.09 -0.65,24.87 -0.65,-26.25 -0.65,-3.32 -0.65,38.36 -0.65,-16.09 -0.65,-9.5 -0.65,-24.46 -0.66,-12.69 -0.65,-13.58 -0.65,14.94 -0.65,-12.73 -0.65,17.92 -0.65,-17.2 -0.65,23.49 -0.65,-23.49 -0.65,7.63 -0.65,-8.83 -0.65,1.45 -0.65,-26.27 -0.65,18.77 -0.65,6.69 -0.65,-16.17 -0.65,53.73 -0.65,-29.68 -0.65,1.62 -0.66,-18.98 -0.65,-2.76 -0.65,-5.54 -0.65,27.4 -0.65,7.07 -0.65,-21.73 -0.65,17.2 -0.65,0.04 -0.65,-19.29 -0.65,-5.44 -0.65,14.3 -0.65,-13.3 -0.65,-0.61 -0.65,14.17 -0.65,-8.53 -0.65,52.23 -0.65,-31.63 -0.65,-32.71 -0.66,13.37 -0.65,21.43 -0.65,-28.48 -0.65,33.07 0,122.27 z"
               inkscape:connector-curvature="0" />
            <path
               id="path5762"
               style="fill:#008f63;fill-opacity:1;fill-rule:nonzero;stroke:none"
               d="m 111.65,333.47 0.65,-3.56 0.65,-6.02 0.65,9.22 0.66,-6.29 0.65,-7.46 0.65,1.34 0.65,10.41 0.65,0.5 0.65,0.66 0.65,-0.1 0.65,-2.56 0.65,4.34 0.65,-2.08 0.65,0.15 0.65,0.57 0.65,0.95 0.65,-5.05 0.65,2.72 0.65,-0.66 0.65,1.94 0.65,-1.9 0.66,-6.78 0.65,5.78 0.65,-3.42 0.65,-0.15 0.65,-1.11 0.65,4.14 0.65,1.35 0.65,-0.65 0.65,1.43 0.65,-2.42 0.65,0.81 0.65,-4.06 0.65,5.98 0.65,-1.68 0.65,-1.03 0.65,2.68 0.65,-1.63 0.65,-2.04 0.66,5.92 0.65,-2.26 0.65,-1.09 0.65,-9.68 0.65,9.61 0.65,2.34 0.65,-2.66 0.65,-0.64 0.65,-0.12 0.65,0.85 0.65,2.41 0.65,-0.84 0.65,-0.33 0.65,-2.9 0.65,1.13 0.65,1.72 0.65,-1.6 0.65,0.96 0.66,-6.66 0.65,4.93 0.65,4.16 0.65,1.02 0.65,-3.5 0.65,-4.54 0.65,3.55 0.65,0.83 0.65,-1.03 0.65,-3.84 0.65,4.21 0.65,-0.28 0.65,0.75 0.65,0.54 0.65,0.51 0.65,-7.45 0.65,8.82 0.65,-7.59 0.66,8.34 0.65,-1.68 0.65,1.67 0.65,-3.13 0.65,0.33 0.65,-0.7 0.65,-4.33 0.65,7.39 0.65,-7.11 0.65,-2 0.65,9.23 0.65,-0.19 0.65,1.26 0.65,-4.05 0.65,-1.05 0.65,3.7 0.65,-5.61 0.65,6.72 0.66,-5.54 0.65,1.47 0.65,-8.05 0.65,6.43 0.65,5.09 0.65,-1.64 0,-149.54 -0.65,41.8 -0.65,55.58 -0.65,-41.45 -0.65,0.42 -0.65,15.84 -0.66,-9.04 -0.65,-42.53 -0.65,38.2 -0.65,-33.48 -0.65,30.05 -0.65,-41.94 -0.65,29.53 -0.65,-1.54 -0.65,-26.41 -0.65,28.11 -0.65,-53.61 -0.65,67.19 -0.65,-90.5 -0.65,84.72 -0.65,-0.24 -0.65,-57.29 -0.65,54.72 -0.65,-19.54 -0.66,-19.63 -0.65,45.41 -0.65,-51.51 -0.65,66.55 -0.65,-11.41 -0.65,8.97 -0.65,-39.83 -0.65,21.53 -0.65,24.72 -0.65,-66.22 -0.65,33.11 -0.65,11.1 -0.65,16.27 -0.65,-8.17 -0.65,16.53 -0.65,-73.57 -0.65,63.63 -0.65,-0.51 -0.66,8.55 -0.65,-38.12 -0.65,22.95 -0.65,-27.71 -0.65,12.58 -0.65,23.28 -0.65,27.25 -0.65,-88.42 -0.65,93.05 -0.65,-32.31 -0.65,-28.01 -0.65,14.88 -0.65,8.39 -0.65,3.32 -0.65,24.19 -0.65,-28 -0.65,3.34 -0.65,-42.24 -0.66,41.29 -0.65,-30.18 -0.65,14.03 -0.65,0.03 -0.65,8.2 -0.65,2.37 -0.65,-24.71 -0.65,16.89 -0.65,-29.11 -0.65,23.47 -0.65,38.68 -0.65,-12.73 -0.65,-8.86 -0.65,-22.96 -0.65,18.28 -0.65,-25.04 -0.65,24.65 -0.65,-39.18 -0.66,19.88 -0.65,31.61 -0.65,-13.22 -0.65,-27.69 -0.65,-12.53 -0.65,38.24 -0.65,19.34 -0.65,-50.64 -0.65,57.7 -0.65,-56.45 -0.65,17.15 -0.65,-8.92 -0.65,28.67 -0.65,11.46 -0.65,-63.97 -0.65,30.75 -0.65,-13.24 -0.65,26.65 -0.66,-13.01 -0.65,-27.09 -0.65,31.71 -0.65,15.08 0,92.29 z"
               inkscape:connector-curvature="0" />
            <path
               id="path5764"
               style="fill:#d579bc;fill-opacity:1;fill-rule:nonzero;stroke:none"
               d="m 111.65,338.76 0.65,0 0.65,0 0.65,0 0.66,0 0.65,0 0.65,0 0.65,0 0.65,0 0.65,0 0.65,0 0.65,0 0.65,0 0.65,0 0.65,0 0.65,0 0.65,0 0.65,0 0.65,0 0.65,0 0.65,0 0.65,0 0.66,0 0.65,0 0.65,0 0.65,0 0.65,0 0.65,0 0.65,0 0.65,0 0.65,0 0.65,0 0.65,0 0.65,0 0.65,0 0.65,0 0.65,0 0.65,0 0.65,0 0.65,0 0.66,0 0.65,0 0.65,0 0.65,0 0.65,0 0.65,0 0.65,0 0.65,0 0.65,0 0.65,0 0.65,0 0.65,0 0.65,0 0.65,0 0.65,0 0.65,0 0.65,0 0.65,0 0.66,0 0.65,0 0.65,0 0.65,0 0.65,0 0.65,0 0.65,0 0.65,0 0.65,0 0.65,0 0.65,0 0.65,0 0.65,0 0.65,0 0.65,0 0.65,0 0.65,0 0.65,0 0.66,0 0.65,0 0.65,0 0.65,0 0.65,0 0.65,0 0.65,0 0.65,0 0.65,0 0.65,0 0.65,0 0.65,0 0.65,0 0.65,0 0.65,0 0.65,0 0.65,0 0.65,0 0.66,0 0.65,0 0.65,0 0.65,0 0.65,0 0.65,0 0,-7.17 -0.65,1.64 -0.65,-5.09 -0.65,-6.43 -0.65,8.05 -0.65,-1.47 -0.66,5.54 -0.65,-6.72 -0.65,5.61 -0.65,-3.7 -0.65,1.05 -0.65,4.05 -0.65,-1.26 -0.65,0.19 -0.65,-9.23 -0.65,2 -0.65,7.11 -0.65,-7.39 -0.65,4.33 -0.65,0.7 -0.65,-0.33 -0.65,3.13 -0.65,-1.67 -0.65,1.68 -0.66,-8.34 -0.65,7.59 -0.65,-8.82 -0.65,7.45 -0.65,-0.51 -0.65,-0.54 -0.65,-0.75 -0.65,0.28 -0.65,-4.21 -0.65,3.84 -0.65,1.03 -0.65,-0.83 -0.65,-3.55 -0.65,4.54 -0.65,3.5 -0.65,-1.02 -0.65,-4.16 -0.65,-4.93 -0.66,6.66 -0.65,-0.96 -0.65,1.6 -0.65,-1.72 -0.65,-1.13 -0.65,2.9 -0.65,0.33 -0.65,0.84 -0.65,-2.41 -0.65,-0.85 -0.65,0.12 -0.65,0.64 -0.65,2.66 -0.65,-2.34 -0.65,-9.61 -0.65,9.68 -0.65,1.09 -0.65,2.26 -0.66,-5.92 -0.65,2.04 -0.65,1.63 -0.65,-2.68 -0.65,1.03 -0.65,1.68 -0.65,-5.98 -0.65,4.06 -0.65,-0.81 -0.65,2.42 -0.65,-1.43 -0.65,0.65 -0.65,-1.35 -0.65,-4.14 -0.65,1.11 -0.65,0.15 -0.65,3.42 -0.65,-5.78 -0.66,6.78 -0.65,1.9 -0.65,-1.94 -0.65,0.66 -0.65,-2.72 -0.65,5.05 -0.65,-0.95 -0.65,-0.57 -0.65,-0.15 -0.65,2.08 -0.65,-4.34 -0.65,2.56 -0.65,0.1 -0.65,-0.66 -0.65,-0.5 -0.65,-10.41 -0.65,-1.34 -0.65,7.46 -0.66,6.29 -0.65,-9.22 -0.65,6.02 -0.65,3.56 0,5.29 z"
               inkscape:connector-curvature="0" />
          </g>
        </g>
        <g
           id="g6536"
           transform="translate(-56.996978,-5.2001928)">
          <path
             style="fill:none;stroke:#000000;stroke-width:3;stroke-linecap:butt;stroke-linejoin:miter;stroke-miterlimit:4;stroke-opacity:1;stroke-dasharray:3, 3;stroke-dashoffset:0"
             d="m 586.6499,202.20462 0,107.274"
             id="path6503"
             inkscape:connector-curvature="0"
             sodipodi:nodetypes="cc" />
          <g
             transform="translate(95.763558,160.33664)"
             id="g6505">
            <text
               sodipodi:linespacing="125%"
               id="text6507"
               y="162.44798"
               x="487.34634"
               style="font-size:18.46687508px;font-style:normal;font-weight:normal;line-height:125%;letter-spacing:0px;word-spacing:0px;fill:#000000;fill-opacity:1;stroke:none;font-family:Sans"
               xml:space="preserve"><tspan
                 style="font-size:12px;font-style:normal;font-variant:normal;font-weight:normal;font-stretch:normal;font-family:Source Sans Pro;-inkscape-font-specification:Source Sans Pro"
                 y="162.44798"
                 x="487.34634"
                 id="tspan6509"
                 sodipodi:role="line"><tspan
                   style="font-style:italic"
                   id="tspan6511">d</tspan></tspan></text>
          </g>
        </g>
        <g
           transform="translate(-102.67337,37.32159)"
           id="g6543">
          <text
             xml:space="preserve"
             style="font-size:18.46687508px;font-style:normal;font-weight:normal;line-height:125%;letter-spacing:0px;word-spacing:0px;fill:#000000;fill-opacity:1;stroke:none;font-family:Sans"
             x="580.70178"
             y="152.23083"
             id="text6561"
             sodipodi:linespacing="125%"><tspan
               sodipodi:role="line"
               id="tspan6563"
               x="580.70178"
               y="152.23083"
               style="font-size:12px;font-style:normal;font-variant:normal;font-weight:normal;font-stretch:normal;font-family:Source Sans Pro;-inkscape-font-specification:Source Sans Pro">stream of message content</tspan></text>
        </g>
      </g>
      <g
         transform="translate(-2.6477285,0)"
         id="g6629">
        <g
           id="g4564"
           transform="matrix(0.8,0,0,1.5912636,38.396584,-158.78214)">
          <g
             transform="translate(1.528789,0)"
             id="g4557">
            <rect
               style="fill:#d579bc;fill-opacity:1;stroke:none"
               id="rect4547"
               width="9.9900293"
               height="10.016726"
               x="428.25745"
               y="243.52452" />
            <rect
               y="223.54124"
               x="445.75745"
               height="30"
               width="9.9900293"
               id="rect4549"
               style="fill:#008f63;fill-opacity:1;stroke:none" />
            <rect
               style="fill:#f79935;fill-opacity:1;stroke:none"
               id="rect4551"
               width="9.9900293"
               height="14.960922"
               x="480.75745"
               y="238.58032" />
            <rect
               y="247.05609"
               x="498.25745"
               height="6.4851575"
               width="9.9900293"
               id="rect4553"
               style="fill:#0090b0;fill-opacity:1;stroke:none" />
            <rect
               style="fill:#e60064;fill-opacity:1;stroke:none"
               id="rect4555"
               width="9.9900293"
               height="4.3662167"
               x="463.25745"
               y="249.17502" />
          </g>
          <rect
             y="251.82065"
             x="419.78125"
             height="1.8852942"
             width="100"
             id="rect3777"
             style="fill:#000000;fill-opacity:1;fill-rule:evenodd;stroke:none" />
        </g>
        <g
           id="g4672"
           transform="matrix(0.8,0,0,1.5912636,38.396584,-100.69848)">
          <g
             id="g4674"
             transform="translate(1.528789,0)">
            <rect
               y="249.88133"
               x="428.25745"
               height="3.6599028"
               width="9.9900293"
               id="rect4676"
               style="fill:#d579bc;fill-opacity:1;stroke:none" />
            <rect
               style="fill:#008f63;fill-opacity:1;stroke:none"
               id="rect4678"
               width="9.9900293"
               height="24.849316"
               x="445.75745"
               y="228.69193" />
            <rect
               y="243.90955"
               x="480.75745"
               height="9.631691"
               width="9.9900293"
               id="rect4680"
               style="fill:#f79935;fill-opacity:1;stroke:none" />
            <rect
               style="fill:#0090b0;fill-opacity:1;stroke:none"
               id="rect4682"
               width="9.9900293"
               height="4.5427952"
               x="498.25745"
               y="248.99844" />
            <rect
               y="223.54124"
               x="463.25745"
               height="30"
               width="9.9900293"
               id="rect4684"
               style="fill:#e60064;fill-opacity:1;stroke:none" />
          </g>
          <rect
             style="fill:#000000;fill-opacity:1;fill-rule:evenodd;stroke:none"
             id="rect4686"
             width="100"
             height="1.8852942"
             x="419.78125"
             y="251.82065" />
        </g>
        <g
           id="g6565"
           transform="translate(-247.14932,37.32159)">
          <text
             sodipodi:linespacing="125%"
             id="text6567"
             y="152.23083"
             x="620.70178"
             style="font-size:18.46687508px;font-style:normal;font-weight:normal;line-height:125%;letter-spacing:0px;word-spacing:0px;fill:#000000;fill-opacity:1;stroke:none;font-family:Sans"
             xml:space="preserve"><tspan
               style="font-size:12px;font-style:normal;font-variant:normal;font-weight:normal;font-stretch:normal;font-family:Source Sans Pro;-inkscape-font-specification:Source Sans Pro"
               y="152.23083"
               x="620.70178"
               id="tspan6569"
               sodipodi:role="line">typical concerns</tspan></text>
        </g>
      </g>
    </g>
  </g>
</svg>
