<?xml version="1.0" encoding="UTF-8" standalone="no"?>
<!-- Created with Inkscape (http://www.inkscape.org/) -->

<svg
   xmlns:dc="http://purl.org/dc/elements/1.1/"
   xmlns:cc="http://creativecommons.org/ns#"
   xmlns:rdf="http://www.w3.org/1999/02/22-rdf-syntax-ns#"
   xmlns:svg="http://www.w3.org/2000/svg"
   xmlns="http://www.w3.org/2000/svg"
   xmlns:sodipodi="http://sodipodi.sourceforge.net/DTD/sodipodi-0.dtd"
   xmlns:inkscape="http://www.inkscape.org/namespaces/inkscape"
   width="264.72919"
   height="184.06516"
   id="svg2"
   version="1.1"
   inkscape:version="0.48.5 r10040"
   sodipodi:docname="cartoon.svg">
  <defs
     id="defs4">
    <clipPath
       id="clipPath5644"
       clipPathUnits="userSpaceOnUse">
      <path
         id="path5646"
         d="m 0,0 278.25,0 0,384 L 0,384 0,0 Z"
         inkscape:connector-curvature="0" />
    </clipPath>
    <clipPath
       id="clipPath6929"
       clipPathUnits="userSpaceOnUse">
      <path
         inkscape:connector-curvature="0"
         id="path6931"
         d="m 0,0 696.75,0 0,904.5 L 0,904.5 0,0 Z" />
    </clipPath>
    <clipPath
       id="clipPath7519"
       clipPathUnits="userSpaceOnUse">
      <path
         inkscape:connector-curvature="0"
         id="path7521"
         d="m 0,0 696.75,0 0,904.5 L 0,904.5 0,0 Z" />
    </clipPath>
    <clipPath
       id="clipPath8109"
       clipPathUnits="userSpaceOnUse">
      <path
         inkscape:connector-curvature="0"
         id="path8111"
         d="m 0,0 696.75,0 0,904.5 L 0,904.5 0,0 Z" />
    </clipPath>
    <clipPath
       clipPathUnits="userSpaceOnUse"
       id="clipPath6050">
      <rect
         style="fill:#000000;fill-opacity:1;stroke:none"
         id="rect6052"
         width="220.5047"
         height="165.37852"
         x="468.5087"
         y="389.67587" />
    </clipPath>
  </defs>
  <sodipodi:namedview
     id="base"
     pagecolor="#ffffff"
     bordercolor="#666666"
     borderopacity="1.0"
     inkscape:pageopacity="0.0"
     inkscape:pageshadow="2"
     inkscape:zoom="3.9182837"
     inkscape:cx="173.79326"
     inkscape:cy="44.775513"
     inkscape:document-units="px"
     inkscape:current-layer="g6054"
     showgrid="false"
     fit-margin-top="0"
     fit-margin-left="0"
     fit-margin-right="0"
     fit-margin-bottom="0"
     inkscape:window-width="2560"
     inkscape:window-height="1391"
     inkscape:window-x="0"
     inkscape:window-y="0"
     inkscape:window-maximized="1" />
  <metadata
     id="metadata7">
    <rdf:RDF>
      <cc:Work
         rdf:about="">
        <dc:format>image/svg+xml</dc:format>
        <dc:type
           rdf:resource="http://purl.org/dc/dcmitype/StillImage" />
        <dc:title />
      </cc:Work>
    </rdf:RDF>
  </metadata>
  <g
     inkscape:label="Layer 1"
     inkscape:groupmode="layer"
     id="layer1"
     transform="translate(-423.27069,-380.68738)">
    <text
       xml:space="preserve"
       style="font-style:normal;font-weight:normal;font-size:18.46687508px;line-height:125%;font-family:Sans;letter-spacing:0px;word-spacing:0px;fill:#000000;fill-opacity:1;stroke:none"
       x="-438.40405"
       y="430.39069"
       id="text4720"
       sodipodi:linespacing="125%"
       transform="matrix(0,-1,1,0,0,0)"><tspan
         sodipodi:role="line"
         id="tspan4722"
         x="-438.40405"
         y="430.39069"
         style="font-style:normal;font-variant:normal;font-weight:normal;font-stretch:normal;font-size:10px;font-family:'Source Sans Pro';-inkscape-font-specification:'Source Sans Pro'">Bangkok</tspan></text>
    <text
       sodipodi:linespacing="125%"
       id="text4728"
       y="430.05469"
       x="-496.77814"
       style="font-style:normal;font-weight:normal;font-size:18.46687508px;line-height:125%;font-family:Sans;letter-spacing:0px;word-spacing:0px;fill:#000000;fill-opacity:1;stroke:none"
       xml:space="preserve"
       transform="matrix(0,-1,1,0,0,0)"><tspan
         style="font-style:normal;font-variant:normal;font-weight:normal;font-stretch:normal;font-size:10px;font-family:'Source Sans Pro';-inkscape-font-specification:'Source Sans Pro'"
         y="430.05469"
         x="-496.77814"
         id="tspan4730"
         sodipodi:role="line">Hong Kong</tspan></text>
    <g
       transform="translate(-57.281289,236.53405)"
       id="g6543">
      <text
         xml:space="preserve"
         style="font-size:18.46687508px;font-style:normal;font-weight:normal;line-height:125%;letter-spacing:0px;word-spacing:0px;fill:#000000;fill-opacity:1;stroke:none;font-family:Sans"
         x="580.70178"
         y="152.23083"
         id="text6561"
         sodipodi:linespacing="125%"><tspan
           sodipodi:role="line"
           id="tspan6563"
           x="580.70178"
           y="152.23083"
           style="font-size:11.25px;font-style:normal;font-variant:normal;font-weight:600;font-stretch:normal;font-family:Source Sans Pro;-inkscape-font-specification:Source Sans Pro Semi-Bold">stream of cables</tspan></text>
    </g>
    <g
       id="g6505"
       transform="translate(53.403743,404.18456)">
      <text
         xml:space="preserve"
         style="font-size:18.46687508px;font-style:normal;font-variant:normal;font-weight:normal;font-stretch:normal;line-height:125%;letter-spacing:0px;word-spacing:0px;fill:#000000;fill-opacity:1;stroke:none;font-family:Source Sans Pro;-inkscape-font-specification:Source Sans Pro"
         x="488.85138"
         y="160.44798"
         id="text6507"
         sodipodi:linespacing="125%"><tspan
           sodipodi:role="line"
           id="tspan6509"
           x="488.85138"
           y="160.44798"
           style="font-size:10px;font-style:normal;font-variant:normal;font-weight:normal;font-stretch:normal;font-family:Source Sans Pro;-inkscape-font-specification:Source Sans Pro">t</tspan></text>
    </g>
    <g
       id="g6054"
       transform="matrix(1.1302282,0,0,1,-89.596993,0)">
      <g
         clip-path="url(#clipPath6050)"
         id="g6023">
        <g
           id="g9000"
           transform="matrix(0.37958587,0,0,0.05071058,368.2792,399.97169)">
          <path
             inkscape:connector-curvature="0"
             id="path6987"
             style="fill:#38d794;fill-opacity:1;fill-rule:nonzero;stroke:none"
             d="m 183.67552,1082.7538 6.65,-81.6 6.65,37.2875 6.6625,60.475 6.65,-113.15 6.65,87.5875 6.65,-34.175 6.65,2.3 6.6625,-28.2875 6.65,-18.6625 6.65,80 6.65,-54.2375 6.65,35.8625 6.6625,-11.4125 6.65,-45.4375 6.65,6.9625 6.65,9.775 6.6625,-3.7375 6.65,-1.975 6.65,36.125 6.65,-42.0125 6.65,87.3875 6.6625,17.3 6.65,-134.7125 6.65,27.7125 6.65,69.625 6.6625,-27.0125 6.65,-1.6625 6.65,-29.275 6.65,-16.2125 6.65,38.0125 6.6625,12.3875 6.65,32.225 6.65,-22.9875 6.65,-57.575 6.65,38.7875 6.6625,58.4125 6.65,-25.1 6.65,-98.5875 6.65,49.4625 6.6625,71.6625 6.65,-102.1875 6.65,104.75 6.65,-55.1125 6.65,13.2 6.6625,-69.7 6.65,75.7625 6.65,51.4625 6.65,-70.725 6.65,-29.725 6.6625,63.7125 6.65,-38.2625 6.65,-53.3125 6.65,64.925 6.6625,-82.1125 6.65,16.725 6.65,40.3625 6.65,23.0625 6.65,112.65 6.6625,-136.7875 6.65,17.425 6.65,-1.1875 6.65,7.425 6.65,54.125 6.6625,-90.625 6.65,21.375 6.65,44.775 6.65,-70.0875 6.6625,64.05 6.65,-62.0875 6.65,36.5375 6.65,-4.8 6.65,36.7625 6.6625,-45.9125 6.65,-2.9125 6.65,-8.675 6.65,53.775 6.65,-31.0125 6.6625,22.825 6.65,-26.3125 6.65,45.225 6.65,-45.225 6.6625,-4.1875 6.65,33.5 6.65,-11.6 6.65,18.375 6.65,-103.7875 6.6625,47.35 6.65,30.7625 6.65,41.1125 6.65,-52.9625 6.6625,-25.5625 6.65,-6.1125 6.65,59.7375 6.65,-28.3 6.65,-29.3 6.6625,-3.8875 6.65,46.525 6.65,-24.1625 6.65,9.6625 0,-82.1625 -6.65,0 -6.65,0 -6.65,0 -6.6625,0 -6.65,0 -6.65,0 -6.65,0 -6.65,0 -6.6625,0 -6.65,0 -6.65,0 -6.65,0 -6.6625,0 -6.65,0 -6.65,0 -6.65,0 -6.65,0 -6.6625,0 -6.65,0 -6.65,0 -6.65,0 -6.6625,0 -6.65,0 -6.65,0 -6.65,0 -6.65,0 -6.6625,0 -6.65,0 -6.65,0 -6.65,0 -6.65,0 -6.6625,0 -6.65,0 -6.65,0 -6.65,0 -6.6625,0 -6.65,0 -6.65,0 -6.65,0 -6.65,0 -6.6625,0 -6.65,0 -6.65,0 -6.65,0 -6.65,0 -6.6625,0 -6.65,0 -6.65,0 -6.65,0 -6.6625,0 -6.65,0 -6.65,0 -6.65,0 -6.65,0 -6.6625,0 -6.65,0 -6.65,0 -6.65,0 -6.65,0 -6.6625,0 -6.65,0 -6.65,0 -6.65,0 -6.6625,0 -6.65,0 -6.65,0 -6.65,0 -6.65,0 -6.6625,0 -6.65,0 -6.65,0 -6.65,0 -6.65,0 -6.6625,0 -6.65,0 -6.65,0 -6.65,0 -6.6625,0 -6.65,0 -6.65,0 -6.65,0 -6.65,0 -6.6625,0 -6.65,0 -6.65,0 -6.65,0 -6.6625,0 -6.65,0 -6.65,0 -6.65,0 -6.65,0 -6.6625,0 -6.65,0 -6.65,0 -6.65,0 -6.65,0 -6.6625,0 -6.65,0 -6.65,0 0,129.3125 z" />
          <path
             inkscape:connector-curvature="0"
             id="path6989"
             style="fill:#187951;fill-opacity:1;fill-rule:nonzero;stroke:none"
             d="m 183.67552,1422.1913 6.65,-39.3625 6.65,12.6125 6.6625,107.575 6.65,-145.475 6.65,88.9 6.65,21.425 6.65,-3.825 6.6625,-2.6625 6.65,5.6 6.65,-63.7875 6.65,135.1625 6.65,-9.75 6.6625,-45.65 6.65,-25.05 6.65,-64.2875 6.65,-33.2625 6.6625,5.1375 6.65,137.825 6.65,-28.975 6.65,-27.9 6.65,-25.95 6.6625,17.3 6.65,61.0875 6.65,-119.3875 6.65,204.9875 6.6625,-174.5625 6.65,45.4875 6.65,-59.275 6.65,101.8125 6.65,-18.6375 6.6625,-12.6125 6.65,-118.85 6.65,159.1375 6.65,-106.7625 6.65,12.225 6.6625,42.9625 6.65,50.1875 6.65,-177.475 6.65,-11.4125 6.6625,240.4 6.65,-81.6625 6.65,-55.9 6.65,-98.1875 6.65,38.0875 6.6625,166.5125 6.65,-124.3375 6.65,108.4375 6.65,-12.1125 6.65,-193.0625 6.6625,-33.4875 6.65,-37.85 6.65,149.95 6.65,-15.5875 6.6625,31.8 6.65,7.45 6.65,26.4875 6.65,35.0125 6.65,-33.775 6.6625,-116.3375 6.65,243.6375 6.65,-59.7875 6.65,-20.7875 6.65,-102.5625 6.6625,-28.7 6.65,87.1625 6.65,-23.375 6.65,14.1375 6.6625,42.5125 6.65,-115.975 6.65,18.45 6.65,-91.2625 6.65,217.1625 6.6625,-23.8 6.65,91.9125 6.65,-71.5625 6.65,25.3875 6.65,-87.3125 6.6625,44.4375 6.65,-99.7875 6.65,40.1 6.65,44.9 6.6625,-154.3875 6.65,115.9625 6.65,124.1375 6.65,-145.95 6.65,69.1875 6.6625,-66.35 6.65,104.025 6.65,-40.8625 6.65,-114.675 6.6625,135.425 6.65,34.3375 6.65,-161.5625 6.65,21.225 6.65,82.75 6.6625,-95.4625 6.65,46.2125 6.65,0 6.65,8.45 0,-390.2875 -6.65,-9.6625 -6.65,24.1625 -6.65,-46.525 -6.6625,3.8875 -6.65,29.3 -6.65,28.3 -6.65,-59.7375 -6.65,6.1125 -6.6625,25.5625 -6.65,52.9625 -6.65,-41.1125 -6.65,-30.7625 -6.6625,-47.35 -6.65,103.7875 -6.65,-18.375 -6.65,11.6 -6.65,-33.5 -6.6625,4.1875 -6.65,45.225 -6.65,-45.225 -6.65,26.3125 -6.6625,-22.825 -6.65,31.0125 -6.65,-53.775 -6.65,8.675 -6.65,2.9125 -6.6625,45.9125 -6.65,-36.7625 -6.65,4.8 -6.65,-36.5375 -6.65,62.0875 -6.6625,-64.05 -6.65,70.0875 -6.65,-44.775 -6.65,-21.375 -6.6625,90.625 -6.65,-54.125 -6.65,-7.425 -6.65,1.1875 -6.65,-17.425 -6.6625,136.7875 -6.65,-112.65 -6.65,-23.0625 -6.65,-40.3625 -6.65,-16.725 -6.6625,82.1125 -6.65,-64.925 -6.65,53.3125 -6.65,38.2625 -6.6625,-63.7125 -6.65,29.725 -6.65,70.725 -6.65,-51.4625 -6.65,-75.7625 -6.6625,69.7 -6.65,-13.2 -6.65,55.1125 -6.65,-104.75 -6.65,102.1875 -6.6625,-71.6625 -6.65,-49.4625 -6.65,98.5875 -6.65,25.1 -6.6625,-58.4125 -6.65,-38.7875 -6.65,57.575 -6.65,22.9875 -6.65,-32.225 -6.6625,-12.3875 -6.65,-38.0125 -6.65,16.2125 -6.65,29.275 -6.65,1.6625 -6.6625,27.0125 -6.65,-69.625 -6.65,-27.7125 -6.65,134.7125 -6.6625,-17.3 -6.65,-87.3875 -6.65,42.0125 -6.65,-36.125 -6.65,1.975 -6.6625,3.7375 -6.65,-9.775 -6.65,-6.9625 -6.65,45.4375 -6.6625,11.4125 -6.65,-35.8625 -6.65,54.2375 -6.65,-80 -6.65,18.6625 -6.6625,28.2875 -6.65,-2.3 -6.65,34.175 -6.65,-87.5875 -6.65,113.15 -6.6625,-60.475 -6.65,-37.2875 -6.65,81.6 0,339.4375 z" />
          <path
             inkscape:connector-curvature="0"
             id="path6991"
             style="fill:#7ae4b7;fill-opacity:1;fill-rule:nonzero;stroke:none"
             d="m 183.67552,1535.3413 6.65,-25.2875 6.65,-29.6125 6.6625,103.3875 6.65,-129.3125 6.65,45.2125 6.65,96.75 6.65,-44.4 6.6625,-30.95 6.65,110.1875 6.65,-176.225 6.65,150.1125 6.65,-76.6 6.6625,100.425 6.65,-10.6125 6.65,-189.5875 6.65,9.7875 6.6625,59.325 6.65,100.1875 6.65,-49.375 6.65,-17.3125 6.65,10.1375 6.6625,-17.3 6.65,79.5 6.65,-139.0875 6.65,198.6625 6.6625,-162.1375 6.65,115.525 6.65,-160.2375 6.65,173.8875 6.65,-52.4875 6.6625,64.375 6.65,-167.675 6.65,118.8625 6.65,-85.4 6.65,-44.625 6.6625,63.6625 6.65,-1.7875 6.65,-59.1625 6.65,-11.0625 6.6625,182.5125 6.65,50.5 6.65,-161 6.65,0.275 6.65,-80.9375 6.6625,143.125 6.65,-62.4625 6.65,46.5625 6.65,-16.8625 6.65,-212.875 6.6625,-11.4 6.65,-14.95 6.65,188.775 6.65,-26.8625 6.6625,68.975 6.65,9.925 6.65,-82.375 6.65,8.25 6.65,36.5875 6.6625,-132.775 6.65,226.2875 6.65,-9.0375 6.65,-61.5875 6.65,-99.225 6.6625,38.125 6.65,48.55 6.65,5.7875 6.65,-38.375 6.6625,88.9875 6.65,-86.8375 6.65,-17.9875 6.65,-114.3125 6.65,253.925 6.6625,-31.05 6.65,13.1375 6.65,-43.0375 6.65,64.2375 6.65,-103.4 6.6625,51.3625 6.65,-127.2 6.65,9.3 6.65,92.7 6.6625,-93.9125 6.65,84.8 6.65,112.5375 6.65,-179.475 6.65,51.9 6.6625,-5.1 6.65,70.3875 6.65,0.975 6.65,-135.75 6.6625,180.15 6.65,-58.7625 6.65,-64.625 6.65,-72.0625 6.65,67.725 6.6625,-35.7125 6.65,81.2625 6.65,-33.825 6.65,-31.425 0,-61.625 -6.65,-8.45 -6.65,0 -6.65,-46.2125 -6.6625,95.4625 -6.65,-82.75 -6.65,-21.225 -6.65,161.5625 -6.65,-34.3375 -6.6625,-135.425 -6.65,114.675 -6.65,40.8625 -6.65,-104.025 -6.6625,66.35 -6.65,-69.1875 -6.65,145.95 -6.65,-124.1375 -6.65,-115.9625 -6.6625,154.3875 -6.65,-44.9 -6.65,-40.1 -6.65,99.7875 -6.6625,-44.4375 -6.65,87.3125 -6.65,-25.3875 -6.65,71.5625 -6.65,-91.9125 -6.6625,23.8 -6.65,-217.1625 -6.65,91.2625 -6.65,-18.45 -6.65,115.975 -6.6625,-42.5125 -6.65,-14.1375 -6.65,23.375 -6.65,-87.1625 -6.6625,28.7 -6.65,102.5625 -6.65,20.7875 -6.65,59.7875 -6.65,-243.6375 -6.6625,116.3375 -6.65,33.775 -6.65,-35.0125 -6.65,-26.4875 -6.65,-7.45 -6.6625,-31.8 -6.65,15.5875 -6.65,-149.95 -6.65,37.85 -6.6625,33.4875 -6.65,193.0625 -6.65,12.1125 -6.65,-108.4375 -6.65,124.3375 -6.6625,-166.5125 -6.65,-38.0875 -6.65,98.1875 -6.65,55.9 -6.65,81.6625 -6.6625,-240.4 -6.65,11.4125 -6.65,177.475 -6.65,-50.1875 -6.6625,-42.9625 -6.65,-12.225 -6.65,106.7625 -6.65,-159.1375 -6.65,118.85 -6.6625,12.6125 -6.65,18.6375 -6.65,-101.8125 -6.65,59.275 -6.65,-45.4875 -6.6625,174.5625 -6.65,-204.9875 -6.65,119.3875 -6.65,-61.0875 -6.6625,-17.3 -6.65,25.95 -6.65,27.9 -6.65,28.975 -6.65,-137.825 -6.6625,-5.1375 -6.65,33.2625 -6.65,64.2875 -6.65,25.05 -6.6625,45.65 -6.65,9.75 -6.65,-135.1625 -6.65,63.7875 -6.65,-5.6 -6.6625,2.6625 -6.65,3.825 -6.65,-21.425 -6.65,-88.9 -6.65,145.475 -6.6625,-107.575 -6.65,-12.6125 -6.65,39.3625 0,113.15 z" />
          <path
             inkscape:connector-curvature="0"
             id="path6993"
             style="fill:#1d9261;fill-opacity:1;fill-rule:nonzero;stroke:none"
             d="m 183.67552,1648.4788 6.65,-11.2 6.65,98.1625 6.6625,-6.1375 6.65,48.4875 6.65,-64.875 6.65,26.4625 6.65,-11.225 6.6625,-42.6875 6.65,130.7125 6.65,-153.5125 6.65,9.375 6.65,61.975 6.6625,41.0875 6.65,-42.0375 6.65,-75.35 6.65,0 6.6625,60.975 6.65,50.0875 6.65,-89.8 6.65,73.45 6.65,-20.575 6.6625,-86.4875 6.65,105.2625 6.65,-79 6.65,50.8875 6.6625,-38.7125 6.65,4.65 6.65,-50.85 6.65,139.95 6.65,-101.05 6.6625,33.3125 6.65,-66.175 6.65,88.2125 6.65,-131.35 6.65,15.9375 6.6625,125.8 6.65,-59.1625 6.65,-39.4375 6.65,19.025 6.6625,55.425 6.65,105.3375 6.65,-206.6875 6.65,57.8 6.65,-10.6 6.6625,148.2625 6.65,-105.825 6.65,-21.4 6.65,48.425 6.65,-301.6125 6.6625,84.1625 6.65,53.7125 6.65,74.925 6.65,-21.6375 6.6625,60.75 6.65,10.8 6.65,7.4875 6.65,-61.6 6.65,-33.5625 6.6625,24.65 6.65,156.8125 6.65,-45.725 6.65,-43.4875 6.65,-107.25 6.6625,136.525 6.65,-25.4 6.65,-43.125 6.65,49.8125 6.6625,28.1375 6.65,-127.5625 6.65,109.8375 6.65,-109.5125 6.65,152.6625 6.6625,40.75 6.65,-87.875 6.65,-23.1875 6.65,-22.4125 6.65,-47.0875 6.6625,172.875 6.65,-162.85 6.65,26.95 6.65,75.0625 6.6625,-103.1125 6.65,64.1875 6.65,99.1375 6.65,-98.3875 6.65,-34.5875 6.6625,34.3125 6.65,51.6125 6.65,-51.8625 6.65,-108.2375 6.6625,205.9375 6.65,-114.4625 6.65,54.825 6.65,-142.5375 6.65,63.5375 6.6625,-0.4625 6.65,90.775 6.65,-67.6625 6.65,35.0375 0,-225.9625 -6.65,31.425 -6.65,33.825 -6.65,-81.2625 -6.6625,35.7125 -6.65,-67.725 -6.65,72.0625 -6.65,64.625 -6.65,58.7625 -6.6625,-180.15 -6.65,135.75 -6.65,-0.975 -6.65,-70.3875 -6.6625,5.1 -6.65,-51.9 -6.65,179.475 -6.65,-112.5375 -6.65,-84.8 -6.6625,93.9125 -6.65,-92.7 -6.65,-9.3 -6.65,127.2 -6.6625,-51.3625 -6.65,103.4 -6.65,-64.2375 -6.65,43.0375 -6.65,-13.1375 -6.6625,31.05 -6.65,-253.925 -6.65,114.3125 -6.65,17.9875 -6.65,86.8375 -6.6625,-88.9875 -6.65,38.375 -6.65,-5.7875 -6.65,-48.55 -6.6625,-38.125 -6.65,99.225 -6.65,61.5875 -6.65,9.0375 -6.65,-226.2875 -6.6625,132.775 -6.65,-36.5875 -6.65,-8.25 -6.65,82.375 -6.65,-9.925 -6.6625,-68.975 -6.65,26.8625 -6.65,-188.775 -6.65,14.95 -6.6625,11.4 -6.65,212.875 -6.65,16.8625 -6.65,-46.5625 -6.65,62.4625 -6.6625,-143.125 -6.65,80.9375 -6.65,-0.275 -6.65,161 -6.65,-50.5 -6.6625,-182.5125 -6.65,11.0625 -6.65,59.1625 -6.65,1.7875 -6.6625,-63.6625 -6.65,44.625 -6.65,85.4 -6.65,-118.8625 -6.65,167.675 -6.6625,-64.375 -6.65,52.4875 -6.65,-173.8875 -6.65,160.2375 -6.65,-115.525 -6.6625,162.1375 -6.65,-198.6625 -6.65,139.0875 -6.65,-79.5 -6.6625,17.3 -6.65,-10.1375 -6.65,17.3125 -6.65,49.375 -6.65,-100.1875 -6.6625,-59.325 -6.65,-9.7875 -6.65,189.5875 -6.65,10.6125 -6.6625,-100.425 -6.65,76.6 -6.65,-150.1125 -6.65,176.225 -6.65,-110.1875 -6.6625,30.95 -6.65,44.4 -6.65,-96.75 -6.65,-45.2125 -6.65,129.3125 -6.6625,-103.3875 -6.65,29.6125 -6.65,25.2875 0,113.1375 z" />
          <path
             inkscape:connector-curvature="0"
             id="path6995"
             style="fill:#23ac72;fill-opacity:1;fill-rule:nonzero;stroke:none"
             d="m 183.67552,1939.4288 6.65,0 6.65,0 6.6625,0 6.65,0 6.65,0 6.65,0 6.65,0 6.6625,0 6.65,0 6.65,0 6.65,0 6.65,0 6.6625,0 6.65,0 6.65,0 6.65,0 6.6625,0 6.65,0 6.65,0 6.65,0 6.65,0 6.6625,0 6.65,0 6.65,0 6.65,0 6.6625,0 6.65,0 6.65,0 6.65,0 6.65,0 6.6625,0 6.65,0 6.65,0 6.65,0 6.65,0 6.6625,0 6.65,0 6.65,0 6.65,0 6.6625,0 6.65,0 6.65,0 6.65,0 6.65,0 6.6625,0 6.65,0 6.65,0 6.65,0 6.65,-351.4375 6.6625,123.625 6.65,12.1 6.65,74.4625 6.65,32 6.6625,42.85 6.65,2.95 6.65,23.7375 6.65,6.0875 6.65,10.5125 6.6625,10.7125 6.65,0.4 6.65,3.8375 6.65,0.825 6.65,3.5 6.6625,0.6625 6.65,0.9125 6.65,-0.925 6.65,2.0125 6.6625,-0.2125 6.65,0.5625 6.65,0.475 6.65,0.013 6.65,0.15 6.6625,0.025 6.65,0.025 6.65,0.075 6.65,0 6.65,0.038 6.6625,-0.013 6.65,0.025 6.65,0 6.65,0 6.6625,0.012 6.65,0 6.65,0 6.65,0 6.65,0 6.6625,0 6.65,0 6.65,0 6.65,0 6.6625,0 6.65,0 6.65,0 6.65,0 6.65,0 6.6625,0 6.65,0 6.65,0 6.65,0 0,-225.95 -6.65,-35.0375 -6.65,67.6625 -6.65,-90.775 -6.6625,0.4625 -6.65,-63.5375 -6.65,142.5375 -6.65,-54.825 -6.65,114.4625 -6.6625,-205.9375 -6.65,108.2375 -6.65,51.8625 -6.65,-51.6125 -6.6625,-34.3125 -6.65,34.5875 -6.65,98.3875 -6.65,-99.1375 -6.65,-64.1875 -6.6625,103.1125 -6.65,-75.0625 -6.65,-26.95 -6.65,162.85 -6.6625,-172.875 -6.65,47.0875 -6.65,22.4125 -6.65,23.1875 -6.65,87.875 -6.6625,-40.75 -6.65,-152.6625 -6.65,109.5125 -6.65,-109.8375 -6.65,127.5625 -6.6625,-28.1375 -6.65,-49.8125 -6.65,43.125 -6.65,25.4 -6.6625,-136.525 -6.65,107.25 -6.65,43.4875 -6.65,45.725 -6.65,-156.8125 -6.6625,-24.65 -6.65,33.5625 -6.65,61.6 -6.65,-7.4875 -6.65,-10.8 -6.6625,-60.75 -6.65,21.6375 -6.65,-74.925 -6.65,-53.7125 -6.6625,-84.1625 -6.65,301.6125 -6.65,-48.425 -6.65,21.4 -6.65,105.825 -6.6625,-148.2625 -6.65,10.6 -6.65,-57.8 -6.65,206.6875 -6.65,-105.3375 -6.6625,-55.425 -6.65,-19.025 -6.65,39.4375 -6.65,59.1625 -6.6625,-125.8 -6.65,-15.9375 -6.65,131.35 -6.65,-88.2125 -6.65,66.175 -6.6625,-33.3125 -6.65,101.05 -6.65,-139.95 -6.65,50.85 -6.65,-4.65 -6.6625,38.7125 -6.65,-50.8875 -6.65,79 -6.65,-105.2625 -6.6625,86.4875 -6.65,20.575 -6.65,-73.45 -6.65,89.8 -6.65,-50.0875 -6.6625,-60.975 -6.65,0 -6.65,75.35 -6.65,42.0375 -6.6625,-41.0875 -6.65,-61.975 -6.65,-9.375 -6.65,153.5125 -6.65,-130.7125 -6.6625,42.6875 -6.65,11.225 -6.65,-26.4625 -6.65,64.875 -6.65,-48.4875 -6.6625,6.1375 -6.65,-98.1625 -6.65,11.2 0,290.95 z" />
          <path
             inkscape:connector-curvature="0"
             id="path6997"
             style="fill:#11573a;fill-opacity:1;fill-rule:nonzero;stroke:none"
             d="m 183.67552,1939.4288 6.65,0 6.65,0 6.6625,0 6.65,0 6.65,0 6.65,0 6.65,0 6.6625,0 6.65,0 6.65,0 6.65,0 6.65,0 6.6625,0 6.65,0 6.65,0 6.65,0 6.6625,0 6.65,0 6.65,0 6.65,0 6.65,0 6.6625,0 6.65,0 6.65,0 6.65,0 6.6625,0 6.65,0 6.65,0 6.65,0 6.65,0 6.6625,0 6.65,0 6.65,0 6.65,0 6.65,0 6.6625,0 6.65,0 6.65,0 6.65,0 6.6625,0 6.65,0 6.65,0 6.65,0 6.65,0 6.6625,0 6.65,0 6.65,0 6.65,0 6.65,0 6.6625,0 6.65,0 6.65,0 6.65,0 6.6625,0 6.65,0 6.65,0 6.65,0 6.65,0 6.6625,0 6.65,0 6.65,0 6.65,0 6.65,0 6.6625,0 6.65,0 6.65,0 6.65,0 6.6625,0 6.65,0 6.65,0 6.65,0 6.65,0 6.6625,0 6.65,0 6.65,0 6.65,0 6.65,0 6.6625,0 6.65,0 6.65,0 6.65,0 6.6625,0 6.65,0 6.65,0 6.65,0 6.65,0 6.6625,0 6.65,0 6.65,0 6.65,0 6.6625,0 6.65,0 6.65,0 6.65,0 6.65,0 6.6625,0 6.65,0 6.65,0 6.65,0 0,0 -6.65,0 -6.65,0 -6.65,0 -6.6625,0 -6.65,0 -6.65,0 -6.65,0 -6.65,0 -6.6625,0 -6.65,0 -6.65,0 -6.65,0 -6.6625,0 -6.65,0 -6.65,0 -6.65,0 -6.65,0 -6.6625,-0.012 -6.65,0 -6.65,0 -6.65,-0.025 -6.6625,0.013 -6.65,-0.038 -6.65,0 -6.65,-0.075 -6.65,-0.025 -6.6625,-0.025 -6.65,-0.15 -6.65,-0.013 -6.65,-0.475 -6.65,-0.5625 -6.6625,0.2125 -6.65,-2.0125 -6.65,0.925 -6.65,-0.9125 -6.6625,-0.6625 -6.65,-3.5 -6.65,-0.825 -6.65,-3.8375 -6.65,-0.4 -6.6625,-10.7125 -6.65,-10.5125 -6.65,-6.0875 -6.65,-23.7375 -6.65,-2.95 -6.6625,-42.85 -6.65,-32 -6.65,-74.4625 -6.65,-12.1 -6.6625,-123.625 -6.65,351.4375 -6.65,0 -6.65,0 -6.65,0 -6.6625,0 -6.65,0 -6.65,0 -6.65,0 -6.65,0 -6.6625,0 -6.65,0 -6.65,0 -6.65,0 -6.6625,0 -6.65,0 -6.65,0 -6.65,0 -6.65,0 -6.6625,0 -6.65,0 -6.65,0 -6.65,0 -6.65,0 -6.6625,0 -6.65,0 -6.65,0 -6.65,0 -6.6625,0 -6.65,0 -6.65,0 -6.65,0 -6.65,0 -6.6625,0 -6.65,0 -6.65,0 -6.65,0 -6.6625,0 -6.65,0 -6.65,0 -6.65,0 -6.65,0 -6.6625,0 -6.65,0 -6.65,0 -6.65,0 -6.65,0 -6.6625,0 -6.65,0 -6.65,0 z" />
        </g>
        <g
           id="g8787"
           transform="matrix(0.37958588,0,0,0.05071056,1022.1617,463.86004)">
          <path
             inkscape:connector-curvature="0"
             id="path7577"
             style="fill:#38d794;fill-opacity:1;fill-rule:nonzero;stroke:none"
             d="m -1538.9451,839.7809 6.65,54.825 6.65,-66.1 6.6625,135.6375 6.65,-85.4375 6.65,-3.975 6.65,59.8625 6.65,51.65 6.6625,-45.15 6.65,41.15 6.65,19.4125 6.65,-99.775 6.65,27.075 6.6625,6.35 6.65,-55.2125 6.65,7.9125 6.65,2.125 6.6625,-4.9625 6.65,-51.525 6.65,89.3125 6.65,16.3375 6.65,-33.75 6.6625,-7.5 6.65,95.9 6.65,-123.4625 6.65,4.25 6.6625,80.2125 6.65,-109.5625 6.65,44.975 6.65,4.025 6.65,18.4375 6.6625,-43.6125 6.65,30.85 6.65,15.75 6.65,-14.2875 6.65,17.075 6.6625,-65.1125 6.65,-1.725 6.65,38.6 6.65,-6.425 6.6625,17.95 6.65,60.8875 6.65,-57.225 6.65,-47.875 6.65,109.5 6.6625,30.8125 6.65,-108.1125 6.65,33.0875 6.65,-30.625 6.65,21.55 6.6625,-35.5375 6.65,-65.0875 6.65,68.35 6.65,122.5875 6.6625,-110.3 6.65,8.375 6.65,10.4 6.65,-79.6125 6.65,98.65 6.6625,-18.3 6.65,7.35 6.65,6.3125 6.65,26.1875 6.65,-19.175 6.6625,-27.6 6.65,51.15 6.65,-77.6875 6.65,16.35 6.6625,55.8625 6.65,-86.4375 6.65,34.5 6.65,-50.1625 6.65,90.175 6.6625,15.85 6.65,82.9375 6.65,-172.5125 6.65,-29.2875 6.65,121.825 6.6625,-10.375 6.65,-111.45 6.65,78.5875 6.65,-45.325 6.66249,31.0375 6.65,12.0375 6.65,-31.85 6.65,54.65 6.65,-36.975 6.6625,67.7875 6.65,-92.4375 6.65,-43.7375 6.65,67.65 6.6625,-6.3125 6.65,36.95 6.65,-56.45 6.65,-0.2625 6.65,132.875 6.6625,-49.9625 6.65,-56.1 6.65,63.3875 6.65,-124.2875 0,-87 -6.65,0 -6.65,0 -6.65,0 -6.6625,0 -6.65,0 -6.65,0 -6.65,0 -6.65,0 -6.6625,0 -6.65,0 -6.65,0 -6.65,0 -6.6625,0 -6.65,0 -6.65,0 -6.65,0 -6.65,0 -6.66249,0 -6.65,0 -6.65,0 -6.65,0 -6.6625,0 -6.65,0 -6.65,0 -6.65,0 -6.65,0 -6.6625,0 -6.65,0 -6.65,0 -6.65,0 -6.65,0 -6.6625,0 -6.65,0 -6.65,0 -6.65,0 -6.6625,0 -6.65,0 -6.65,0 -6.65,0 -6.65,0 -6.6625,0 -6.65,0 -6.65,0 -6.65,0 -6.65,0 -6.6625,0 -6.65,0 -6.65,0 -6.65,0 -6.6625,0 -6.65,0 -6.65,0 -6.65,0 -6.65,0 -6.6625,0 -6.65,0 -6.65,0 -6.65,0 -6.65,0 -6.6625,0 -6.65,0 -6.65,0 -6.65,0 -6.6625,0 -6.65,0 -6.65,0 -6.65,0 -6.65,0 -6.6625,0 -6.65,0 -6.65,0 -6.65,0 -6.65,0 -6.6625,0 -6.65,0 -6.65,0 -6.65,0 -6.6625,0 -6.65,0 -6.65,0 -6.65,0 -6.65,0 -6.6625,0 -6.65,0 -6.65,0 -6.65,0 -6.6625,0 -6.65,0 -6.65,0 -6.65,0 -6.65,0 -6.6625,0 -6.65,0 -6.65,0 -6.65,0 -6.65,0 -6.6625,0 -6.65,0 -6.65,0 0,88.3 z"
             clip-path="none" />
          <path
             inkscape:connector-curvature="0"
             id="path7579"
             style="fill:#187951;fill-opacity:1;fill-rule:nonzero;stroke:none"
             d="m -1538.9451,1089.9559 6.65,-68.125 6.65,22.3625 6.6625,151.95 6.65,-126.6 6.65,97.9 6.65,20.6875 6.65,-14.0875 6.6625,-81.2625 6.65,57.2875 6.65,28.1875 6.65,-8.9875 6.65,-23.3875 6.6625,-10.025 6.65,-27.1375 6.65,-23.5125 6.65,20.6125 6.6625,-36.8125 6.65,93.3 6.65,-39.2875 6.65,35.375 6.65,-52.575 6.6625,-7.9125 6.65,122.325 6.65,-128.75 6.65,-1.0625 6.6625,130.5875 6.65,-109.5625 6.65,56.65 6.65,-2.2125 6.65,33.775 6.6625,-6.6875 6.65,4.2375 6.65,-51.325 6.65,12.8625 6.65,-56.3125 6.6625,-95.95 6.65,95.95 6.65,37.8875 6.65,-6.2125 6.6625,-65.1 6.65,52.225 6.65,-77.0375 6.65,25.8375 6.65,97.4125 6.6625,-107.8375 6.65,55.1375 6.65,65.425 6.65,-111.7625 6.65,42.675 6.6625,-82.8125 6.65,-17.35 6.65,130.925 6.65,40.75 6.6625,-117.8 6.65,25.9625 6.65,47.575 6.65,-76.85 6.65,114.8125 6.6625,44.775 6.65,-201.5625 6.65,156.3125 6.65,25.775 6.65,-70.875 6.6625,16.8875 6.65,0.3125 6.65,-25.3125 6.65,-23.575 6.6625,72.0375 6.65,-34.05 6.65,42.1 6.65,-66.2 6.65,99.95 6.6625,-70.7875 6.65,81.7875 6.65,-209.475 6.65,94.3125 6.65,23.3125 6.6625,-10.8 6.65,-12.5 6.65,7.9375 6.65,8.8125 6.66249,-95.3375 6.65,86.025 6.65,26 6.65,-33.25 6.65,-12.325 6.6625,55.4625 6.65,-66.025 6.65,-48.2875 6.65,155.2375 6.6625,-159.775 6.65,106.2125 6.65,21.6375 6.65,-29 6.65,82.55 6.6625,-4.1125 6.65,-113.9 6.65,42.25 6.65,-10.35 0,-290 -6.65,124.2875 -6.65,-63.3875 -6.65,56.1 -6.6625,49.9625 -6.65,-132.875 -6.65,0.2625 -6.65,56.45 -6.65,-36.95 -6.6625,6.3125 -6.65,-67.65 -6.65,43.7375 -6.65,92.4375 -6.6625,-67.7875 -6.65,36.975 -6.65,-54.65 -6.65,31.85 -6.65,-12.0375 -6.66249,-31.0375 -6.65,45.325 -6.65,-78.5875 -6.65,111.45 -6.6625,10.375 -6.65,-121.825 -6.65,29.2875 -6.65,172.5125 -6.65,-82.9375 -6.6625,-15.85 -6.65,-90.175 -6.65,50.1625 -6.65,-34.5 -6.65,86.4375 -6.6625,-55.8625 -6.65,-16.35 -6.65,77.6875 -6.65,-51.15 -6.6625,27.6 -6.65,19.175 -6.65,-26.1875 -6.65,-6.3125 -6.65,-7.35 -6.6625,18.3 -6.65,-98.65 -6.65,79.6125 -6.65,-10.4 -6.65,-8.375 -6.6625,110.3 -6.65,-122.5875 -6.65,-68.35 -6.65,65.0875 -6.6625,35.5375 -6.65,-21.55 -6.65,30.625 -6.65,-33.0875 -6.65,108.1125 -6.6625,-30.8125 -6.65,-109.5 -6.65,47.875 -6.65,57.225 -6.65,-60.8875 -6.6625,-17.95 -6.65,6.425 -6.65,-38.6 -6.65,1.725 -6.6625,65.1125 -6.65,-17.075 -6.65,14.2875 -6.65,-15.75 -6.65,-30.85 -6.6625,43.6125 -6.65,-18.4375 -6.65,-4.025 -6.65,-44.975 -6.65,109.5625 -6.6625,-80.2125 -6.65,-4.25 -6.65,123.4625 -6.65,-95.9 -6.6625,7.5 -6.65,33.75 -6.65,-16.3375 -6.65,-89.3125 -6.65,51.525 -6.6625,4.9625 -6.65,-2.125 -6.65,-7.9125 -6.65,55.2125 -6.6625,-6.35 -6.65,-27.075 -6.65,99.775 -6.65,-19.4125 -6.65,-41.15 -6.6625,45.15 -6.65,-51.65 -6.65,-59.8625 -6.65,3.975 -6.65,85.4375 -6.6625,-135.6375 -6.65,66.1 -6.65,-54.825 0,250.175 z"
             clip-path="none" />
          <path
             inkscape:connector-curvature="0"
             id="path7581"
             style="fill:#7ae4b7;fill-opacity:1;fill-rule:nonzero;stroke:none"
             d="m -1538.9451,1281.2684 6.65,-52.7 6.65,62.125 6.6625,79.45 6.65,-30.25 6.65,-18.3875 6.65,-6.6 6.65,46.95 6.6625,-22.575 6.65,-84.3125 6.65,85.1625 6.65,-3.7375 6.65,-13.0375 6.6625,-37.1 6.65,8.2375 6.65,48.5875 6.65,-21.575 6.6625,-35.25 6.65,102.0125 6.65,-36.6125 6.65,41.5 6.65,-56.2375 6.6625,-119.0875 6.65,196.3625 6.65,-33.7125 6.65,-12.75 6.6625,-37.175 6.65,62.6 6.65,-16.75 6.65,3.825 6.65,-37.15 6.6625,55.9125 6.65,-12.7 6.65,22.5125 6.65,-14.2875 6.65,25.4375 6.6625,-192.475 6.65,75.4875 6.65,4 6.65,-99.2875 6.6625,95.2875 6.65,47.15 6.65,-90.2375 6.65,-38.1625 6.65,146.0125 6.6625,-46.225 6.65,87.3 6.65,-28.575 6.65,-30.1125 6.65,-111.4375 6.6625,-48.9625 6.65,31.2375 6.65,36.55 6.65,29.1375 6.6625,-36.7 6.65,29.3 6.65,-28.075 6.65,22.4125 6.65,134.425 6.6625,7.3625 6.65,-226.575 6.65,104.0875 6.65,32.8875 6.65,15.6375 6.6625,30.1 6.65,-1.5875 6.65,9.6125 6.65,-48.8 6.6625,41.0125 6.65,-49.1 6.65,98.1875 6.65,-94.3375 6.65,159.0125 6.6625,-120.225 6.65,22.9 6.65,-143.75 6.65,50.0375 6.65,62.425 6.6625,-137.0875 6.65,131.825 6.65,-15.875 6.65,-40.2875 6.66249,-29.5625 6.65,79.875 6.65,19.6125 6.65,-59.2875 6.65,36.9625 6.6625,101.6875 6.65,-217.8875 6.65,-14.2 6.65,156.9 6.6625,-7.7125 6.65,-44.6375 6.65,56.2 6.65,-51.1 6.65,116.375 6.6625,-126.2125 6.65,-51.575 6.65,89.2125 6.65,-4.1375 0,-217.5 -6.65,10.35 -6.65,-42.25 -6.65,113.9 -6.6625,4.1125 -6.65,-82.55 -6.65,29 -6.65,-21.6375 -6.65,-106.2125 -6.6625,159.775 -6.65,-155.2375 -6.65,48.2875 -6.65,66.025 -6.6625,-55.4625 -6.65,12.325 -6.65,33.25 -6.65,-26 -6.65,-86.025 -6.66249,95.3375 -6.65,-8.8125 -6.65,-7.9375 -6.65,12.5 -6.6625,10.8 -6.65,-23.3125 -6.65,-94.3125 -6.65,209.475 -6.65,-81.7875 -6.6625,70.7875 -6.65,-99.95 -6.65,66.2 -6.65,-42.1 -6.65,34.05 -6.6625,-72.0375 -6.65,23.575 -6.65,25.3125 -6.65,-0.3125 -6.6625,-16.8875 -6.65,70.875 -6.65,-25.775 -6.65,-156.3125 -6.65,201.5625 -6.6625,-44.775 -6.65,-114.8125 -6.65,76.85 -6.65,-47.575 -6.65,-25.9625 -6.6625,117.8 -6.65,-40.75 -6.65,-130.925 -6.65,17.35 -6.6625,82.8125 -6.65,-42.675 -6.65,111.7625 -6.65,-65.425 -6.65,-55.1375 -6.6625,107.8375 -6.65,-97.4125 -6.65,-25.8375 -6.65,77.0375 -6.65,-52.225 -6.6625,65.1 -6.65,6.2125 -6.65,-37.8875 -6.65,-95.95 -6.6625,95.95 -6.65,56.3125 -6.65,-12.8625 -6.65,51.325 -6.65,-4.2375 -6.6625,6.6875 -6.65,-33.775 -6.65,2.2125 -6.65,-56.65 -6.65,109.5625 -6.6625,-130.5875 -6.65,1.0625 -6.65,128.75 -6.65,-122.325 -6.6625,7.9125 -6.65,52.575 -6.65,-35.375 -6.65,39.2875 -6.65,-93.3 -6.6625,36.8125 -6.65,-20.6125 -6.65,23.5125 -6.65,27.1375 -6.6625,10.025 -6.65,23.3875 -6.65,8.9875 -6.65,-28.1875 -6.65,-57.2875 -6.6625,81.2625 -6.65,14.0875 -6.65,-20.6875 -6.65,-97.9 -6.65,126.6 -6.6625,-151.95 -6.65,-22.3625 -6.65,68.125 0,191.3125 z"
             clip-path="none" />
          <path
             inkscape:connector-curvature="0"
             id="path7583"
             style="fill:#1d9261;fill-opacity:1;fill-rule:nonzero;stroke:none"
             d="m -1538.9451,1605.0309 6.65,68.825 6.65,-28.825 6.6625,34.4375 6.65,10.3 6.65,-60.1375 6.65,37.4125 6.65,-7.825 6.6625,2.4125 6.65,-50.025 6.65,37.575 6.65,4.7375 6.65,24.4 6.6625,-41.1125 6.65,57.4 6.65,-32.975 6.65,-62.8125 6.6625,21.675 6.65,34.8125 6.65,25.0125 6.65,25.85 6.65,-91.95 6.6625,3.3375 6.65,39.1 6.65,46.8125 6.65,18.6 6.6625,-47.2 6.65,-15.65 6.65,22.7 6.65,-15.9 6.65,35.6 6.6625,-8.3 6.65,-63.9 6.65,25.8875 6.65,60.7375 6.65,-78.8375 6.6625,-18.7375 6.65,68.875 6.65,-60.9625 6.65,22.8 6.6625,54.875 6.65,-72.225 6.65,13.2 6.65,-13.7375 6.65,13.7375 6.6625,0 6.65,-28.65 6.65,21.0625 6.65,-40.825 6.65,-149.1375 6.6625,-15.575 6.65,85.55 6.65,0.3 6.65,81.075 6.6625,-49.8125 6.65,-31.025 6.65,103.9125 6.65,-22 6.65,65.5625 6.6625,-23.4 6.65,12.25 6.65,-39.5375 6.65,67.975 6.65,-4.2375 6.6625,2.9875 6.65,-26.15 6.65,23.9375 6.65,13.475 6.6625,-65.625 6.65,23.925 6.65,30.0625 6.65,-26.0625 6.65,61.125 6.6625,-16.1125 6.65,-44.9 6.65,-16.375 6.65,-1.4 6.65,30.8375 6.6625,-54.05 6.65,80.3875 6.65,-66.675 6.65,24.5625 6.66249,20.6875 6.65,-70.75 6.65,135.0625 6.65,-86.275 6.65,-12.325 6.6625,67.7875 6.65,-74.825 6.65,42.025 6.65,4.75 6.6625,27.5625 6.65,-81.8375 6.65,37.3 6.65,-62.5375 6.65,78.625 6.6625,-59.25 6.65,3.975 6.65,44.6 6.65,-16.575 0,-304.4875 -6.65,4.1375 -6.65,-89.2125 -6.65,51.575 -6.6625,126.2125 -6.65,-116.375 -6.65,51.1 -6.65,-56.2 -6.65,44.6375 -6.6625,7.7125 -6.65,-156.9 -6.65,14.2 -6.65,217.8875 -6.6625,-101.6875 -6.65,-36.9625 -6.65,59.2875 -6.65,-19.6125 -6.65,-79.875 -6.66249,29.5625 -6.65,40.2875 -6.65,15.875 -6.65,-131.825 -6.6625,137.0875 -6.65,-62.425 -6.65,-50.0375 -6.65,143.75 -6.65,-22.9 -6.6625,120.225 -6.65,-159.0125 -6.65,94.3375 -6.65,-98.1875 -6.65,49.1 -6.6625,-41.0125 -6.65,48.8 -6.65,-9.6125 -6.65,1.5875 -6.6625,-30.1 -6.65,-15.6375 -6.65,-32.8875 -6.65,-104.0875 -6.65,226.575 -6.6625,-7.3625 -6.65,-134.425 -6.65,-22.4125 -6.65,28.075 -6.65,-29.3 -6.6625,36.7 -6.65,-29.1375 -6.65,-36.55 -6.65,-31.2375 -6.6625,48.9625 -6.65,111.4375 -6.65,30.1125 -6.65,28.575 -6.65,-87.3 -6.6625,46.225 -6.65,-146.0125 -6.65,38.1625 -6.65,90.2375 -6.65,-47.15 -6.6625,-95.2875 -6.65,99.2875 -6.65,-4 -6.65,-75.4875 -6.6625,192.475 -6.65,-25.4375 -6.65,14.2875 -6.65,-22.5125 -6.65,12.7 -6.6625,-55.9125 -6.65,37.15 -6.65,-3.825 -6.65,16.75 -6.65,-62.6 -6.6625,37.175 -6.65,12.75 -6.65,33.7125 -6.65,-196.3625 -6.6625,119.0875 -6.65,56.2375 -6.65,-41.5 -6.65,36.6125 -6.65,-102.0125 -6.6625,35.25 -6.65,21.575 -6.65,-48.5875 -6.65,-8.2375 -6.6625,37.1 -6.65,13.0375 -6.65,3.7375 -6.65,-85.1625 -6.65,84.3125 -6.6625,22.575 -6.65,-46.95 -6.65,6.6 -6.65,18.3875 -6.65,30.25 -6.6625,-79.45 -6.65,-62.125 -6.65,52.7 0,323.7625 z"
             clip-path="none" />
          <path
             inkscape:connector-curvature="0"
             id="path7585"
             style="fill:#23ac72;fill-opacity:1;fill-rule:nonzero;stroke:none"
             d="m -1538.9451,1737.4684 6.65,0 6.65,0 6.6625,0 6.65,0 6.65,0 6.65,0 6.65,0 6.6625,0 6.65,0 6.65,0 6.65,0 6.65,0 6.6625,0 6.65,0 6.65,0 6.65,0 6.6625,0 6.65,0 6.65,0 6.65,0 6.65,0 6.6625,0 6.65,0 6.65,0 6.65,0 6.6625,0 6.65,0 6.65,0 6.65,0 6.65,0 6.6625,0 6.65,0 6.65,0 6.65,0 6.65,0 6.6625,0 6.65,0 6.65,0 6.65,0 6.6625,0 6.65,0 6.65,0 6.65,0 6.65,0 6.6625,0 6.65,0 6.65,0 6.65,0 6.65,-243.5875 6.6625,-4.3125 6.65,102.0125 6.65,12.925 6.65,38.925 6.6625,5.275 6.65,32.65 6.65,-11.1 6.65,27.5375 6.65,19.175 6.6625,6.0625 6.65,1.825 6.65,6.9875 6.65,-2.5125 6.65,5.3625 6.6625,-1.5125 6.65,1.4625 6.65,1.7375 6.65,-0.1625 6.6625,0.375 6.65,0.15 6.65,0.175 6.65,0.3 6.65,-0.05 6.6625,0.1125 6.65,0.062 6.65,0.05 6.65,0.038 6.65,0 6.6625,0.013 6.65,0.012 6.65,0 6.65,0.013 6.66249,0 6.65,0 6.65,0 6.65,0 6.65,0 6.6625,0 6.65,0 6.65,0 6.65,0 6.6625,0 6.65,0 6.65,0 6.65,0 6.65,0 6.6625,0 6.65,0 6.65,0 6.65,0 0,-87 -6.65,16.575 -6.65,-44.6 -6.65,-3.975 -6.6625,59.25 -6.65,-78.625 -6.65,62.5375 -6.65,-37.3 -6.65,81.8375 -6.6625,-27.5625 -6.65,-4.75 -6.65,-42.025 -6.65,74.825 -6.6625,-67.7875 -6.65,12.325 -6.65,86.275 -6.65,-135.0625 -6.65,70.75 -6.66249,-20.6875 -6.65,-24.5625 -6.65,66.675 -6.65,-80.3875 -6.6625,54.05 -6.65,-30.8375 -6.65,1.4 -6.65,16.375 -6.65,44.9 -6.6625,16.1125 -6.65,-61.125 -6.65,26.0625 -6.65,-30.0625 -6.65,-23.925 -6.6625,65.625 -6.65,-13.475 -6.65,-23.9375 -6.65,26.15 -6.6625,-2.9875 -6.65,4.2375 -6.65,-67.975 -6.65,39.5375 -6.65,-12.25 -6.6625,23.4 -6.65,-65.5625 -6.65,22 -6.65,-103.9125 -6.65,31.025 -6.6625,49.8125 -6.65,-81.075 -6.65,-0.3 -6.65,-85.55 -6.6625,15.575 -6.65,149.1375 -6.65,40.825 -6.65,-21.0625 -6.65,28.65 -6.6625,0 -6.65,-13.7375 -6.65,13.7375 -6.65,-13.2 -6.65,72.225 -6.6625,-54.875 -6.65,-22.8 -6.65,60.9625 -6.65,-68.875 -6.6625,18.7375 -6.65,78.8375 -6.65,-60.7375 -6.65,-25.8875 -6.65,63.9 -6.6625,8.3 -6.65,-35.6 -6.65,15.9 -6.65,-22.7 -6.65,15.65 -6.6625,47.2 -6.65,-18.6 -6.65,-46.8125 -6.65,-39.1 -6.6625,-3.3375 -6.65,91.95 -6.65,-25.85 -6.65,-25.0125 -6.65,-34.8125 -6.6625,-21.675 -6.65,62.8125 -6.65,32.975 -6.65,-57.4 -6.6625,41.1125 -6.65,-24.4 -6.65,-4.7375 -6.65,-37.575 -6.65,50.025 -6.6625,-2.4125 -6.65,7.825 -6.65,-37.4125 -6.65,60.1375 -6.65,-10.3 -6.6625,-34.4375 -6.65,28.825 -6.65,-68.825 0,132.4375 z"
             clip-path="none" />
          <path
             inkscape:connector-curvature="0"
             id="path7587"
             style="fill:#11573a;fill-opacity:1;fill-rule:nonzero;stroke:none"
             d="m -1538.9451,1737.4684 6.65,0 6.65,0 6.6625,0 6.65,0 6.65,0 6.65,0 6.65,0 6.6625,0 6.65,0 6.65,0 6.65,0 6.65,0 6.6625,0 6.65,0 6.65,0 6.65,0 6.6625,0 6.65,0 6.65,0 6.65,0 6.65,0 6.6625,0 6.65,0 6.65,0 6.65,0 6.6625,0 6.65,0 6.65,0 6.65,0 6.65,0 6.6625,0 6.65,0 6.65,0 6.65,0 6.65,0 6.6625,0 6.65,0 6.65,0 6.65,0 6.6625,0 6.65,0 6.65,0 6.65,0 6.65,0 6.6625,0 6.65,0 6.65,0 6.65,0 6.65,0 6.6625,0 6.65,0 6.65,0 6.65,0 6.6625,0 6.65,0 6.65,0 6.65,0 6.65,0 6.6625,0 6.65,0 6.65,0 6.65,0 6.65,0 6.6625,0 6.65,0 6.65,0 6.65,0 6.6625,0 6.65,0 6.65,0 6.65,0 6.65,0 6.6625,0 6.65,0 6.65,0 6.65,0 6.65,0 6.6625,0 6.65,0 6.65,0 6.65,0 6.66249,0 6.65,0 6.65,0 6.65,0 6.65,0 6.6625,0 6.65,0 6.65,0 6.65,0 6.6625,0 6.65,0 6.65,0 6.65,0 6.65,0 6.6625,0 6.65,0 6.65,0 6.65,0 0,0 -6.65,0 -6.65,0 -6.65,0 -6.6625,0 -6.65,0 -6.65,0 -6.65,0 -6.65,0 -6.6625,0 -6.65,0 -6.65,0 -6.65,0 -6.6625,0 -6.65,0 -6.65,0 -6.65,0 -6.65,0 -6.66249,0 -6.65,-0.013 -6.65,0 -6.65,-0.012 -6.6625,-0.013 -6.65,0 -6.65,-0.038 -6.65,-0.05 -6.65,-0.062 -6.6625,-0.1125 -6.65,0.05 -6.65,-0.3 -6.65,-0.175 -6.65,-0.15 -6.6625,-0.375 -6.65,0.1625 -6.65,-1.7375 -6.65,-1.4625 -6.6625,1.5125 -6.65,-5.3625 -6.65,2.5125 -6.65,-6.9875 -6.65,-1.825 -6.6625,-6.0625 -6.65,-19.175 -6.65,-27.5375 -6.65,11.1 -6.65,-32.65 -6.6625,-5.275 -6.65,-38.925 -6.65,-12.925 -6.65,-102.0125 -6.6625,4.3125 -6.65,243.5875 -6.65,0 -6.65,0 -6.65,0 -6.6625,0 -6.65,0 -6.65,0 -6.65,0 -6.65,0 -6.6625,0 -6.65,0 -6.65,0 -6.65,0 -6.6625,0 -6.65,0 -6.65,0 -6.65,0 -6.65,0 -6.6625,0 -6.65,0 -6.65,0 -6.65,0 -6.65,0 -6.6625,0 -6.65,0 -6.65,0 -6.65,0 -6.6625,0 -6.65,0 -6.65,0 -6.65,0 -6.65,0 -6.6625,0 -6.65,0 -6.65,0 -6.65,0 -6.6625,0 -6.65,0 -6.65,0 -6.65,0 -6.65,0 -6.6625,0 -6.65,0 -6.65,0 -6.65,0 -6.65,0 -6.6625,0 -6.65,0 -6.65,0 z"
             clip-path="none" />
        </g>
        <g
           id="g8898"
           transform="matrix(0.37958587,0,0,0.05071058,-228.89078,358.12054)">
          <path
             inkscape:connector-curvature="0"
             id="path8167"
             style="fill:#38d794;fill-opacity:1;fill-rule:nonzero;stroke:none"
             d="m 1756.89,1203.3466 6.65,-252.9 6.65,28.2625 6.6625,-11.375 6.65,30.275 6.65,-34.6 6.65,74.0875 6.65,-38.1625 6.6625,45.6625 6.65,44.15 6.65,-161.175 6.65,72.625 6.65,-5.475 6.6625,-24.5625 6.65,115.3625 6.65,-200.3625 6.65,36.525 6.6625,90.775 6.65,15.4875 6.65,-122.2375 6.65,76.125 6.65,62.525 6.6625,-9.15 6.65,-126.5625 6.65,137.1125 6.65,-118.1875 6.6625,134.5625 6.65,-37.9125 6.65,-30.35 6.65,-75.8375 6.65,166.8625 6.6625,-179.1875 6.65,92.4375 6.65,-125.625 6.65,161.325 6.65,54.65 6.6625,-53.9375 6.65,-20.275 6.65,-93.175 6.65,6.4625 6.6625,76.7375 6.65,19.05 6.65,-43.05 6.65,-62.275 6.65,131.4625 6.6625,-69.8375 6.65,-141.8375 6.65,162.825 6.65,33.9125 6.65,-147.6625 6.6625,28.375 6.65,23.2625 6.65,99.275 6.65,-99.775 6.6625,98.0875 6.65,-48.925 6.65,1.5 6.65,-47.975 6.65,-19.6625 6.6625,123.25 6.65,-25.375 6.65,-13.525 6.65,-22.275 6.65,65.05 6.6625,-101.9 6.65,86.9125 6.65,40.025 6.65,-152.5625 6.6625,77.7625 6.65,-100.725 6.65,146.775 6.65,64.1875 6.65,-141.3875 6.6625,-103.05 6.65,85.225 6.65,59.575 6.65,70.325 6.65,25.625 6.6625,-71.9125 6.65,-124.425 6.65,102.1875 6.65,-32.775 6.6625,-60.0125 6.65,-3.525 6.65,25.4375 6.65,-21.9125 6.65,26.8875 6.6625,65.9125 6.65,-2.425 6.65,6.125 6.65,3.45 6.6625,-44.6375 6.65,49.65 6.65,-66.7 6.65,106.35 6.65,-99.9625 6.6625,32.9375 6.65,29.975 6.65,-84.0125 6.65,-34.9875 0,-185.7625 -6.65,0 -6.65,0 -6.65,0 -6.6625,0 -6.65,0 -6.65,0 -6.65,0 -6.65,0 -6.6625,0 -6.65,0 -6.65,0 -6.65,0 -6.6625,0 -6.65,0 -6.65,0 -6.65,0 -6.65,0 -6.6625,0 -6.65,0 -6.65,0 -6.65,0 -6.6625,0 -6.65,0 -6.65,0 -6.65,0 -6.65,0 -6.6625,0 -6.65,0 -6.65,0 -6.65,0 -6.65,0 -6.6625,0 -6.65,0 -6.65,0 -6.65,0 -6.6625,0 -6.65,0 -6.65,0 -6.65,0 -6.65,0 -6.6625,0 -6.65,0 -6.65,0 -6.65,0 -6.65,0 -6.6625,0 -6.65,0 -6.65,0 -6.65,0 -6.6625,0 -6.65,0 -6.65,0 -6.65,0 -6.65,0 -6.6625,0 -6.65,0 -6.65,0 -6.65,0 -6.65,0 -6.6625,0 -6.65,0 -6.65,0 -6.65,0 -6.6625,0 -6.65,0 -6.65,0 -6.65,0 -6.65,0 -6.6625,0 -6.65,0 -6.65,0 -6.65,0 -6.65,0 -6.6625,0 -6.65,0 -6.65,0 -6.65,0 -6.6625,0 -6.65,0 -6.65,0 -6.65,0 -6.65,0 -6.6625,0 -6.65,0 -6.65,0 -6.65,0 -6.6625,0 -6.65,0 -6.65,0 -6.65,0 -6.65,0 -6.6625,0 -6.65,0 -6.65,0 -6.65,0 -6.65,0 -6.6625,0 -6.65,0 -6.65,0 0,482.5125 z" />
          <path
             inkscape:connector-curvature="0"
             id="path8169"
             style="fill:#187951;fill-opacity:1;fill-rule:nonzero;stroke:none"
             d="m 1756.89,1266.2716 6.65,-248.2875 6.65,-24.1125 6.6625,39.1875 6.65,33.7375 6.65,-69.1875 6.65,95.3 6.65,-68.6875 6.6625,64.525 6.65,103.0125 6.65,-168.7625 6.65,-22.8 6.65,63 6.6625,-36.3625 6.65,139.725 6.65,-199.225 6.65,-9.1375 6.6625,109.8125 6.65,-23.9 6.65,-76.775 6.65,58 6.65,96.0625 6.6625,-29.025 6.65,-121.125 6.65,130.5375 6.65,-46.9875 6.6625,83.1875 6.65,-83.425 6.65,-15.175 6.65,-93.175 6.65,184.1875 6.6625,-193.875 6.65,138.65 6.65,-164.725 6.65,217.3 6.65,-5.8375 6.6625,-57.475 6.65,78.9625 6.65,-129.85 6.65,-22.3625 6.6625,62.425 6.65,3.3625 6.65,-7.475 6.65,-61.0375 6.65,107.9875 6.6625,-42.8375 6.65,-182.375 6.65,182.7 6.65,10.5 6.65,-94.5125 6.6625,-44.4125 6.65,89.85 6.65,95.6 6.65,-109.0375 6.6625,77.2 6.65,-49.8625 6.65,39.8 6.65,-77.6 6.65,1.1125 6.6625,148.775 6.65,-38.95 6.65,61.1125 6.65,-125.15 6.65,41 6.6625,-84.775 6.65,85.475 6.65,53.925 6.65,-84.8625 6.6625,18.7 6.65,-106.95 6.65,113.0125 6.65,99.4125 6.65,-118.025 6.6625,-155.2 6.65,77.95 6.65,122.0125 6.65,39.075 6.65,55.5 6.6625,-145.125 6.65,-62.5875 6.65,62.5875 6.65,-28.575 6.6625,-13.25 6.65,12.4875 6.65,-17.6 6.65,-14.0875 6.65,61.0375 6.6625,19.3375 6.65,-19.3375 6.65,111.8875 6.65,-102.8875 6.6625,-37.05 6.65,1.55 6.65,-37.275 6.65,116.3625 6.65,-120.8 6.6625,95.15 6.65,-14.9875 6.65,27.3 6.65,-153.5625 0,-28.5875 -6.65,34.9875 -6.65,84.0125 -6.65,-29.975 -6.6625,-32.9375 -6.65,99.9625 -6.65,-106.35 -6.65,66.7 -6.65,-49.65 -6.6625,44.6375 -6.65,-3.45 -6.65,-6.125 -6.65,2.425 -6.6625,-65.9125 -6.65,-26.8875 -6.65,21.9125 -6.65,-25.4375 -6.65,3.525 -6.6625,60.0125 -6.65,32.775 -6.65,-102.1875 -6.65,124.425 -6.6625,71.9125 -6.65,-25.625 -6.65,-70.325 -6.65,-59.575 -6.65,-85.225 -6.6625,103.05 -6.65,141.3875 -6.65,-64.1875 -6.65,-146.775 -6.65,100.725 -6.6625,-77.7625 -6.65,152.5625 -6.65,-40.025 -6.65,-86.9125 -6.6625,101.9 -6.65,-65.05 -6.65,22.275 -6.65,13.525 -6.65,25.375 -6.6625,-123.25 -6.65,19.6625 -6.65,47.975 -6.65,-1.5 -6.65,48.925 -6.6625,-98.0875 -6.65,99.775 -6.65,-99.275 -6.65,-23.2625 -6.6625,-28.375 -6.65,147.6625 -6.65,-33.9125 -6.65,-162.825 -6.65,141.8375 -6.6625,69.8375 -6.65,-131.4625 -6.65,62.275 -6.65,43.05 -6.65,-19.05 -6.6625,-76.7375 -6.65,-6.4625 -6.65,93.175 -6.65,20.275 -6.6625,53.9375 -6.65,-54.65 -6.65,-161.325 -6.65,125.625 -6.65,-92.4375 -6.6625,179.1875 -6.65,-166.8625 -6.65,75.8375 -6.65,30.35 -6.65,37.9125 -6.6625,-134.5625 -6.65,118.1875 -6.65,-137.1125 -6.65,126.5625 -6.6625,9.15 -6.65,-62.525 -6.65,-76.125 -6.65,122.2375 -6.65,-15.4875 -6.6625,-90.775 -6.65,-36.525 -6.65,200.3625 -6.65,-115.3625 -6.6625,24.5625 -6.65,5.475 -6.65,-72.625 -6.65,161.175 -6.65,-44.15 -6.6625,-45.6625 -6.65,38.1625 -6.65,-74.0875 -6.65,34.6 -6.65,-30.275 -6.6625,11.375 -6.65,-28.2625 -6.65,252.9 0,62.925 z" />
          <path
             inkscape:connector-curvature="0"
             id="path8171"
             style="fill:#7ae4b7;fill-opacity:1;fill-rule:nonzero;stroke:none"
             d="m 1756.89,1413.1216 6.65,-111.5 6.65,-65.0375 6.6625,59.4125 6.65,-38.925 6.65,0 6.65,59.075 6.65,62.0125 6.6625,63.775 6.65,-132.45 6.65,31.575 6.65,-94.3625 6.65,131.4625 6.6625,-147.325 6.65,70.7875 6.65,-104.225 6.65,89.475 6.6625,-79.9875 6.65,112.0125 6.65,-135.875 6.65,146.8125 6.65,53.4625 6.6625,-33.7125 6.65,-221.8375 6.65,164.5125 6.65,80.6 6.6625,-70.5375 6.65,10.1125 6.65,-45.5125 6.65,59.5875 6.65,76.9375 6.6625,-205.025 6.65,30.8125 6.65,3.5625 6.65,129.7125 6.65,-40.05 6.6625,-63.8125 6.65,84.3 6.65,-82.9 6.65,-46.2125 6.6625,12.325 6.65,66.1 6.65,-17.8875 6.65,-102.8 6.65,190.9375 6.6625,-87.05 6.65,-53.275 6.65,18.3 6.65,33.1 6.65,-127.2125 6.6625,-5.95 6.65,-35.4125 6.65,176.625 6.65,-75.2875 6.6625,87.7375 6.65,-54.5375 6.65,43.8125 6.65,-156.575 6.65,23.1 6.6625,153.2 6.65,-9.9 6.65,75.85 6.65,-26.95 6.65,-138.025 6.6625,-16.225 6.65,110.875 6.65,-55.3625 6.65,34.15 6.6625,-15.3625 6.65,-137.0375 6.65,125.325 6.65,52.15 6.65,34.3375 6.6625,-60.4375 6.65,-12.6875 6.65,48.6 6.65,-8.9625 6.65,108.8625 6.6625,-67.0125 6.65,-107.975 6.65,-13.8125 6.65,97.5125 6.6625,-116.1375 6.65,26.575 6.65,52.825 6.65,-169.025 6.65,143.4125 6.6625,27.6875 6.65,-17.725 6.65,102.5625 6.65,-123.575 6.6625,26.35 6.65,-76.025 6.65,155.7125 6.65,37.675 6.65,-93.7625 6.6625,-10.975 6.65,25.8625 6.65,26.4875 6.65,-132.2375 0,-271.50002 -6.65,153.56252 -6.65,-27.3 -6.65,14.9875 -6.6625,-95.15002 -6.65,120.80002 -6.65,-116.36252 -6.65,37.27502 -6.65,-1.55 -6.6625,37.05 -6.65,102.8875 -6.65,-111.8875 -6.65,19.3375 -6.6625,-19.3375 -6.65,-61.03752 -6.65,14.08752 -6.65,17.6 -6.65,-12.4875 -6.6625,13.25 -6.65,28.575 -6.65,-62.58752 -6.65,62.58752 -6.6625,145.125 -6.65,-55.5 -6.65,-39.075 -6.65,-122.01252 -6.65,-77.95 -6.6625,155.20002 -6.65,118.025 -6.65,-99.4125 -6.65,-113.01252 -6.65,106.95002 -6.6625,-18.7 -6.65,84.8625 -6.65,-53.925 -6.65,-85.47502 -6.6625,84.77502 -6.65,-41 -6.65,125.15 -6.65,-61.1125 -6.65,38.95 -6.6625,-148.77502 -6.65,-1.1125 -6.65,77.60002 -6.65,-39.8 -6.65,49.8625 -6.6625,-77.2 -6.65,109.0375 -6.65,-95.6 -6.65,-89.85002 -6.6625,44.4125 -6.65,94.51252 -6.65,-10.5 -6.65,-182.70002 -6.65,182.37502 -6.6625,42.8375 -6.65,-107.98752 -6.65,61.03752 -6.65,7.475 -6.65,-3.3625 -6.6625,-62.42502 -6.65,22.36252 -6.65,129.85 -6.65,-78.9625 -6.6625,57.475 -6.65,5.8375 -6.65,-217.30002 -6.65,164.72502 -6.65,-138.65002 -6.6625,193.87502 -6.65,-184.18752 -6.65,93.17502 -6.65,15.175 -6.65,83.425 -6.6625,-83.1875 -6.65,46.9875 -6.65,-130.53752 -6.65,121.12502 -6.6625,29.025 -6.65,-96.0625 -6.65,-58.00002 -6.65,76.77502 -6.65,23.9 -6.6625,-109.81252 -6.65,9.1375 -6.65,199.22502 -6.65,-139.725 -6.6625,36.3625 -6.65,-63 -6.65,22.8 -6.65,168.7625 -6.65,-103.0125 -6.6625,-64.525 -6.65,68.6875 -6.65,-95.30002 -6.65,69.18752 -6.65,-33.7375 -6.6625,-39.18752 -6.65,24.11252 -6.65,248.2875 0,146.85 z" />
          <path
             inkscape:connector-curvature="0"
             id="path8173"
             style="fill:#1d9261;fill-opacity:1;fill-rule:nonzero;stroke:none"
             d="m 1756.89,1497.0466 6.65,-100.875 6.65,-7.9 6.6625,72.0625 6.65,-82.175 6.65,103.7875 6.65,-109.9875 6.65,132.6125 6.6625,10.9375 6.65,-58.8625 6.65,11.6375 6.65,-122.9875 6.65,115.0375 6.6625,-70.8375 6.65,74.2125 6.65,-118.4125 6.65,124.1625 6.6625,-123.7 6.65,102.45 6.65,-126.5375 6.65,138.6625 6.65,77.025 6.6625,-2.0125 6.65,-188.4875 6.65,68.65 6.65,5.0625 6.6625,58.7125 6.65,-60.675 6.65,15.175 6.65,47.675 6.65,-32.5125 6.6625,-96.4625 6.65,0 6.65,32 6.65,87.5875 6.65,0.7875 6.6625,-34.9375 6.65,57.625 6.65,-96.8375 6.65,37.7625 6.6625,-50.0875 6.65,51.5375 6.65,-25.1625 6.65,-43.9875 6.65,118.95 6.6625,-64.3625 6.65,-100.9 6.65,91.2375 6.65,-5.65 6.65,-189.025 6.6625,23.7375 6.65,3.1125 6.65,145.4875 6.65,-44.475 6.6625,33.1875 6.65,-14.35 6.65,78.35 6.65,-131.2375 6.65,-48.525 6.6625,184.3375 6.65,-48.15 6.65,79.2 6.65,-13.3625 6.65,-59.6375 6.6625,22.6875 6.65,9.9 6.65,-62.275 6.65,14.675 6.6625,37.0125 6.65,-76.2 6.65,0.9 6.65,143.0875 6.65,34.05 6.6625,-164.45 6.65,40.5875 6.65,163.575 6.65,-147.3125 6.65,104.5875 6.6625,-17.925 6.65,-115.8 6.65,3.6875 6.65,80.7 6.6625,-111.975 6.65,41.2875 6.65,-60.6375 6.65,-48.5125 6.65,109.6875 6.6625,37.7875 6.65,0.8125 6.65,71.3875 6.65,-108.35 6.6625,80.7125 6.65,-69.8125 6.65,94.9375 6.65,59.85 6.65,-184.8 6.6625,73.8125 6.65,27.325 6.65,-35.05 6.65,-121.35 0,-128.6125 -6.65,132.2375 -6.65,-26.4875 -6.65,-25.8625 -6.6625,10.975 -6.65,93.7625 -6.65,-37.675 -6.65,-155.7125 -6.65,76.025 -6.6625,-26.35 -6.65,123.575 -6.65,-102.5625 -6.65,17.725 -6.6625,-27.6875 -6.65,-143.4125 -6.65,169.025 -6.65,-52.825 -6.65,-26.575 -6.6625,116.1375 -6.65,-97.5125 -6.65,13.8125 -6.65,107.975 -6.6625,67.0125 -6.65,-108.8625 -6.65,8.9625 -6.65,-48.6 -6.65,12.6875 -6.6625,60.4375 -6.65,-34.3375 -6.65,-52.15 -6.65,-125.325 -6.65,137.0375 -6.6625,15.3625 -6.65,-34.15 -6.65,55.3625 -6.65,-110.875 -6.6625,16.225 -6.65,138.025 -6.65,26.95 -6.65,-75.85 -6.65,9.9 -6.6625,-153.2 -6.65,-23.1 -6.65,156.575 -6.65,-43.8125 -6.65,54.5375 -6.6625,-87.7375 -6.65,75.2875 -6.65,-176.625 -6.65,35.4125 -6.6625,5.95 -6.65,127.2125 -6.65,-33.1 -6.65,-18.3 -6.65,53.275 -6.6625,87.05 -6.65,-190.9375 -6.65,102.8 -6.65,17.8875 -6.65,-66.1 -6.6625,-12.325 -6.65,46.2125 -6.65,82.9 -6.65,-84.3 -6.6625,63.8125 -6.65,40.05 -6.65,-129.7125 -6.65,-3.5625 -6.65,-30.8125 -6.6625,205.025 -6.65,-76.9375 -6.65,-59.5875 -6.65,45.5125 -6.65,-10.1125 -6.6625,70.5375 -6.65,-80.6 -6.65,-164.5125 -6.65,221.8375 -6.6625,33.7125 -6.65,-53.4625 -6.65,-146.8125 -6.65,135.875 -6.65,-112.0125 -6.6625,79.9875 -6.65,-89.475 -6.65,104.225 -6.65,-70.7875 -6.6625,147.325 -6.65,-131.4625 -6.65,94.3625 -6.65,-31.575 -6.65,132.45 -6.6625,-63.775 -6.65,-62.0125 -6.65,-59.075 -6.65,0 -6.65,38.925 -6.6625,-59.4125 -6.65,65.0375 -6.65,111.5 0,83.925 z" />
          <path
             inkscape:connector-curvature="0"
             id="path8175"
             style="fill:#23ac72;fill-opacity:1;fill-rule:nonzero;stroke:none"
             d="m 1756.89,1706.8216 6.65,0 6.65,0 6.6625,0 6.65,0 6.65,0 6.65,0 6.65,0 6.6625,0 6.65,0 6.65,0 6.65,0 6.65,0 6.6625,0 6.65,0 6.65,0 6.65,0 6.6625,0 6.65,0 6.65,0 6.65,0 6.65,0 6.6625,0 6.65,0 6.65,0 6.65,0 6.6625,0 6.65,0 6.65,0 6.65,0 6.65,0 6.6625,0 6.65,0 6.65,0 6.65,0 6.65,0 6.6625,0 6.65,0 6.65,0 6.65,0 6.6625,0 6.65,0 6.65,0 6.65,0 6.65,0 6.6625,0 6.65,0 6.65,0 6.65,0 6.65,-342.5 6.6625,144.5125 6.65,-45.275 6.65,86.2875 6.65,52.575 6.6625,6.9625 6.65,36.725 6.65,25.65 6.65,-3.7125 6.65,11.0125 6.6625,12.1875 6.65,7.35 6.65,2.4375 6.65,0 6.65,1.8375 6.6625,0.2625 6.65,1.6625 6.65,0.3125 6.65,0.5875 6.6625,0.5875 6.65,-0.05 6.65,0.2125 6.65,0.1 6.65,0.013 6.6625,0.075 6.65,0.088 6.65,0.037 6.65,0 6.65,0.025 6.6625,0.012 6.65,0.013 6.65,-0.013 6.65,0.025 6.6625,0 6.65,0 6.65,0 6.65,0 6.65,0 6.6625,0 6.65,0 6.65,0 6.65,0 6.6625,0 6.65,0 6.65,0 6.65,0 6.65,0 6.6625,0 6.65,0 6.65,0 6.65,0 0,-371.525 -6.65,121.35 -6.65,35.05 -6.65,-27.325 -6.6625,-73.8125 -6.65,184.8 -6.65,-59.85 -6.65,-94.9375 -6.65,69.8125 -6.6625,-80.7125 -6.65,108.35 -6.65,-71.3875 -6.65,-0.8125 -6.6625,-37.7875 -6.65,-109.6875 -6.65,48.5125 -6.65,60.6375 -6.65,-41.2875 -6.6625,111.975 -6.65,-80.7 -6.65,-3.6875 -6.65,115.8 -6.6625,17.925 -6.65,-104.5875 -6.65,147.3125 -6.65,-163.575 -6.65,-40.5875 -6.6625,164.45 -6.65,-34.05 -6.65,-143.0875 -6.65,-0.9 -6.65,76.2 -6.6625,-37.0125 -6.65,-14.675 -6.65,62.275 -6.65,-9.9 -6.6625,-22.6875 -6.65,59.6375 -6.65,13.3625 -6.65,-79.2 -6.65,48.15 -6.6625,-184.3375 -6.65,48.525 -6.65,131.2375 -6.65,-78.35 -6.65,14.35 -6.6625,-33.1875 -6.65,44.475 -6.65,-145.4875 -6.65,-3.1125 -6.6625,-23.7375 -6.65,189.025 -6.65,5.65 -6.65,-91.2375 -6.65,100.9 -6.6625,64.3625 -6.65,-118.95 -6.65,43.9875 -6.65,25.1625 -6.65,-51.5375 -6.6625,50.0875 -6.65,-37.7625 -6.65,96.8375 -6.65,-57.625 -6.6625,34.9375 -6.65,-0.7875 -6.65,-87.5875 -6.65,-32 -6.65,0 -6.6625,96.4625 -6.65,32.5125 -6.65,-47.675 -6.65,-15.175 -6.65,60.675 -6.6625,-58.7125 -6.65,-5.0625 -6.65,-68.65 -6.65,188.4875 -6.6625,2.0125 -6.65,-77.025 -6.65,-138.6625 -6.65,126.5375 -6.65,-102.45 -6.6625,123.7 -6.65,-124.1625 -6.65,118.4125 -6.65,-74.2125 -6.6625,70.8375 -6.65,-115.0375 -6.65,122.9875 -6.65,-11.6375 -6.65,58.8625 -6.6625,-10.9375 -6.65,-132.6125 -6.65,109.9875 -6.65,-103.7875 -6.65,82.175 -6.6625,-72.0625 -6.65,7.9 -6.65,100.875 0,209.775 z" />
          <path
             inkscape:connector-curvature="0"
             id="path8177"
             style="fill:#11573a;fill-opacity:1;fill-rule:nonzero;stroke:none"
             d="m 1756.89,1706.8216 6.65,0 6.65,0 6.6625,0 6.65,0 6.65,0 6.65,0 6.65,0 6.6625,0 6.65,0 6.65,0 6.65,0 6.65,0 6.6625,0 6.65,0 6.65,0 6.65,0 6.6625,0 6.65,0 6.65,0 6.65,0 6.65,0 6.6625,0 6.65,0 6.65,0 6.65,0 6.6625,0 6.65,0 6.65,0 6.65,0 6.65,0 6.6625,0 6.65,0 6.65,0 6.65,0 6.65,0 6.6625,0 6.65,0 6.65,0 6.65,0 6.6625,0 6.65,0 6.65,0 6.65,0 6.65,0 6.6625,0 6.65,0 6.65,0 6.65,0 6.65,0 6.6625,0 6.65,0 6.65,0 6.65,0 6.6625,0 6.65,0 6.65,0 6.65,0 6.65,0 6.6625,0 6.65,0 6.65,0 6.65,0 6.65,0 6.6625,0 6.65,0 6.65,0 6.65,0 6.6625,0 6.65,0 6.65,0 6.65,0 6.65,0 6.6625,0 6.65,0 6.65,0 6.65,0 6.65,0 6.6625,0 6.65,0 6.65,0 6.65,0 6.6625,0 6.65,0 6.65,0 6.65,0 6.65,0 6.6625,0 6.65,0 6.65,0 6.65,0 6.6625,0 6.65,0 6.65,0 6.65,0 6.65,0 6.6625,0 6.65,0 6.65,0 6.65,0 0,0 -6.65,0 -6.65,0 -6.65,0 -6.6625,0 -6.65,0 -6.65,0 -6.65,0 -6.65,0 -6.6625,0 -6.65,0 -6.65,0 -6.65,0 -6.6625,0 -6.65,0 -6.65,0 -6.65,0 -6.65,0 -6.6625,0 -6.65,-0.025 -6.65,0.013 -6.65,-0.013 -6.6625,-0.012 -6.65,-0.025 -6.65,0 -6.65,-0.037 -6.65,-0.088 -6.6625,-0.075 -6.65,-0.013 -6.65,-0.1 -6.65,-0.2125 -6.65,0.05 -6.6625,-0.5875 -6.65,-0.5875 -6.65,-0.3125 -6.65,-1.6625 -6.6625,-0.2625 -6.65,-1.8375 -6.65,0 -6.65,-2.4375 -6.65,-7.35 -6.6625,-12.1875 -6.65,-11.0125 -6.65,3.7125 -6.65,-25.65 -6.65,-36.725 -6.6625,-6.9625 -6.65,-52.575 -6.65,-86.2875 -6.65,45.275 -6.6625,-144.5125 -6.65,342.5 -6.65,0 -6.65,0 -6.65,0 -6.6625,0 -6.65,0 -6.65,0 -6.65,0 -6.65,0 -6.6625,0 -6.65,0 -6.65,0 -6.65,0 -6.6625,0 -6.65,0 -6.65,0 -6.65,0 -6.65,0 -6.6625,0 -6.65,0 -6.65,0 -6.65,0 -6.65,0 -6.6625,0 -6.65,0 -6.65,0 -6.65,0 -6.6625,0 -6.65,0 -6.65,0 -6.65,0 -6.65,0 -6.6625,0 -6.65,0 -6.65,0 -6.65,0 -6.6625,0 -6.65,0 -6.65,0 -6.65,0 -6.65,0 -6.6625,0 -6.65,0 -6.65,0 -6.65,0 -6.65,0 -6.6625,0 -6.65,0 -6.65,0 z" />
        </g>
      </g>
      <rect
         style="fill:#000000;fill-opacity:0.21142859;stroke:none"
         id="rect9183"
         width="2.9447794"
         height="157.29401"
         x="559.11981"
         y="394.67426" />
    </g>
    <text
       transform="matrix(0,-1,1,0,0,0)"
       xml:space="preserve"
       style="font-style:normal;font-weight:normal;font-size:18.46687508px;line-height:125%;font-family:Sans;letter-spacing:0px;word-spacing:0px;fill:#000000;fill-opacity:1;stroke:none"
       x="-550.1098"
       y="430.24069"
       id="text9156"
       sodipodi:linespacing="125%"><tspan
         sodipodi:role="line"
         id="tspan9158"
         x="-550.1098"
         y="430.24069"
         style="font-style:normal;font-variant:normal;font-weight:normal;font-stretch:normal;font-size:10px;font-family:'Source Sans Pro';-inkscape-font-specification:'Source Sans Pro'">State Dept.</tspan></text>
    <text
       xml:space="preserve"
       style="font-style:normal;font-weight:normal;font-size:40px;line-height:125%;font-family:sans-serif;letter-spacing:0px;word-spacing:0px;fill:#000000;fill-opacity:1;stroke:none;stroke-width:1px;stroke-linecap:butt;stroke-linejoin:miter;stroke-opacity:1"
       x="392.3989"
       y="390.56662"
       id="text9160"
       sodipodi:linespacing="125%"><tspan
         sodipodi:role="line"
         id="tspan9162"
         x="392.3989"
         y="390.56662" /></text>
  </g>
</svg>
